<?xml version="1.0" standalone="no"?>
<!DOCTYPE svg PUBLIC "-//W3C//DTD SVG 20010904//EN"
 "http://www.w3.org/TR/2001/REC-SVG-20010904/DTD/svg10.dtd">
<svg version="1.0" xmlns="http://www.w3.org/2000/svg"
 width="512.000000pt" height="512.000000pt" viewBox="0 0 512.000000 512.000000"
 preserveAspectRatio="xMidYMid meet">
<metadata>
Created by potrace 1.11, written by Peter Selinger 2001-2013
</metadata>
<g transform="translate(0.000000,512.000000) scale(0.100000,-0.100000)"
fill="#000000" stroke="none">
<path d="M2027 5101 c-4 -8 0 -60 6 -88 7 -28 35 -71 56 -84 13 -9 12 -9 -7
-5 -33 7 -38 -16 -13 -67 17 -35 29 -47 60 -57 22 -7 47 -10 55 -7 20 8 21 -7
1 -27 -8 -8 -15 -17 -15 -20 0 -3 -12 -22 -26 -43 -29 -43 -27 -93 7 -129 24
-26 24 -25 -6 -60 -13 -15 -27 -41 -30 -56 -4 -15 -9 -28 -12 -28 -2 0 -24 17
-48 37 -40 36 -42 39 -28 60 19 29 10 69 -18 84 -28 14 -39 -1 -39 -56 l0 -40
-26 27 c-15 14 -28 39 -31 54 -2 16 -5 36 -7 45 -1 8 -8 29 -15 46 -11 28 -10
33 13 58 14 15 26 33 27 39 0 6 2 21 3 32 1 12 -5 40 -13 62 -17 44 -29 43
-63 -6 -15 -22 -15 -22 -32 23 -27 69 -134 126 -138 73 -6 -95 10 -143 57
-174 27 -18 75 -26 75 -13 0 20 20 7 34 -22 10 -19 11 -27 3 -21 -6 5 -23 13
-36 17 -21 6 -22 5 -10 -8 8 -8 16 -13 18 -11 7 7 31 -18 31 -32 0 -11 -5 -10
-18 4 -38 35 -62 52 -62 42 0 -5 -6 -7 -14 -4 -8 3 -17 0 -21 -5 -3 -6 -10 -9
-13 -7 -4 2 -19 -4 -32 -14 l-24 -18 37 -36 c46 -43 86 -47 132 -12 l31 24 -1
-44 c0 -25 3 -48 7 -50 17 -11 -5 -25 -30 -20 -69 15 -112 20 -173 20 -63 1
-66 2 -54 19 31 45 -31 108 -90 93 -22 -6 -25 -11 -22 -35 5 -28 4 -29 -30
-19 -49 13 -86 2 -135 -41 -48 -43 -47 -47 27 -93 67 -41 148 -18 181 50 12
25 20 32 32 26 9 -4 29 -8 45 -10 15 -2 39 -6 55 -7 108 -14 269 -68 286 -96
12 -18 -36 -46 -80 -46 -24 0 -44 -3 -44 -7 0 -5 6 -8 13 -9 6 0 23 -2 37 -4
14 -2 44 6 68 17 l43 20 28 -26 c26 -25 72 -101 78 -129 1 -7 5 -25 9 -42 11
-51 8 -105 -11 -230 -1 -11 -8 -40 -15 -65 -7 -25 -14 -54 -15 -65 -1 -11 -5
-19 -8 -17 -4 1 -11 2 -16 2 -15 0 -41 66 -43 114 -2 25 -7 46 -11 46 -5 0 -5
5 -2 10 3 6 3 16 -2 23 -4 6 -8 18 -10 26 -1 8 -11 27 -23 43 -17 23 -19 32
-10 49 21 38 5 91 -39 130 -59 52 -78 55 -90 13 -5 -18 -8 -42 -6 -51 2 -10 4
-25 4 -34 1 -25 59 -79 91 -86 17 -3 30 -11 30 -18 0 -8 4 -15 9 -17 4 -1 12
-14 16 -28 l7 -25 -17 23 c-24 33 -72 54 -125 55 -66 1 -71 -5 -55 -59 16 -55
29 -71 74 -93 44 -21 98 -19 115 5 9 12 15 14 20 6 4 -7 3 -12 -2 -12 -22 0
30 -168 57 -184 5 -3 -2 -47 -15 -98 -27 -110 -24 -93 -24 -123 0 -68 -123 24
-174 130 -30 61 -36 88 -42 183 -4 61 -18 137 -38 207 -11 40 -33 76 -79 130
-32 37 -33 42 -22 70 23 54 0 107 -69 157 l-41 29 -8 -32 c-12 -44 -3 -106 18
-129 9 -10 14 -24 10 -29 -3 -6 0 -11 9 -11 27 0 95 -75 120 -132 14 -31 28
-79 31 -105 4 -26 9 -56 11 -65 5 -18 -10 -25 -20 -9 -3 5 -17 11 -31 13 -22
5 -25 2 -25 -22 0 -37 35 -80 60 -75 11 2 20 3 20 2 1 -1 3 -35 6 -75 l6 -72
-33 2 c-62 3 -117 36 -146 87 -14 25 -36 62 -48 82 -16 24 -20 40 -14 50 5 8
9 10 9 4 0 -18 37 49 38 70 2 44 -9 82 -34 108 -29 32 -37 29 -64 -23 -22 -43
-26 -91 -10 -120 8 -16 8 -18 -5 -14 -8 4 -15 11 -15 16 0 6 -7 8 -15 5 -8 -4
-17 -2 -20 3 -6 9 -31 8 -41 -3 -4 -3 3 -5 15 -2 11 2 21 0 21 -6 0 -5 -12 -7
-27 -5 -36 7 -83 -17 -110 -56 -25 -35 -22 -45 15 -60 75 -30 144 -15 171 36
13 23 12 28 -5 48 -17 20 -16 19 12 -2 17 -14 43 -50 58 -80 69 -136 108 -169
211 -174 36 -2 41 -6 66 -52 34 -61 103 -125 173 -159 37 -18 56 -34 60 -51
12 -46 63 -91 119 -104 62 -15 111 -39 152 -74 27 -23 28 -26 10 -26 -12 0
-66 9 -120 21 -113 24 -216 67 -251 105 -23 24 -54 76 -55 91 0 5 -2 10 -4 11
-2 2 -1 -11 2 -30 6 -43 37 -93 76 -122 30 -22 123 -69 156 -78 9 -3 -8 -16
-37 -30 l-53 -26 -19 21 c-11 11 -20 24 -20 28 0 11 -57 50 -80 54 -11 2 -24
6 -28 9 -4 2 -14 1 -22 -5 -11 -6 -8 -9 12 -9 31 0 82 -40 104 -81 14 -29 14
-29 -13 -29 -16 0 -41 7 -58 16 l-30 15 20 -20 c11 -11 38 -23 60 -27 22 -3
42 -7 43 -9 7 -7 25 -97 37 -185 3 -19 8 -48 11 -64 6 -28 6 -29 -32 -22 -55
11 -135 66 -176 122 -33 46 -76 150 -65 160 2 3 -4 35 -14 72 -16 61 -16 69
-2 100 9 18 16 41 16 50 0 45 -4 60 -18 65 -12 5 -12 2 -3 -18 15 -33 -7 -91
-28 -74 -8 6 -14 16 -14 21 0 18 -61 98 -94 123 -19 14 -44 28 -56 30 -12 2
-28 9 -34 15 -7 5 -16 7 -20 3 -3 -4 0 11 7 33 15 42 10 75 -17 116 -16 25
-64 53 -74 44 -10 -11 -10 -111 0 -130 14 -27 34 -46 47 -46 5 0 13 -5 17 -12
4 -7 3 -8 -4 -4 -7 4 -12 3 -12 -3 0 -5 -9 -8 -20 -6 -12 2 -30 -8 -50 -31
-34 -39 -39 -63 -12 -65 9 -1 30 -3 47 -5 16 -2 40 4 53 12 28 19 44 56 28 66
-23 16 20 7 50 -10 48 -26 101 -99 110 -150 3 -14 8 -30 12 -36 3 -6 7 -17 8
-26 1 -8 9 -60 18 -114 26 -152 27 -144 -26 -139 -68 7 -74 14 -71 77 1 50 -1
59 -28 86 -17 16 -36 30 -42 30 -7 0 0 -8 15 -17 29 -18 45 -74 33 -113 -9
-30 -21 -25 -55 23 -65 92 -106 125 -170 137 -44 8 -45 -5 -1 -15 36 -8 73
-45 136 -134 58 -81 98 -105 184 -107 73 -3 69 -1 75 -21 8 -25 55 -77 89 -98
15 -9 27 -20 27 -24 0 -8 -210 -6 -273 3 -151 21 -267 118 -360 301 -14 28
-46 82 -72 120 -46 69 -46 69 -25 85 37 28 60 73 60 117 0 23 5 45 12 49 7 4
8 3 4 -4 -5 -8 5 -12 32 -12 45 0 73 25 89 81 15 52 2 70 -45 64 -50 -6 -92
-52 -92 -101 0 -19 -3 -33 -7 -31 -5 3 -7 -9 -7 -26 2 -42 -17 -77 -54 -104
-29 -22 -32 -22 -48 -6 -33 34 -65 119 -66 180 -2 79 14 128 70 214 26 41 56
91 67 112 11 20 27 40 37 43 20 6 71 64 63 72 -3 3 -15 -4 -28 -16 -33 -31
-40 -27 -32 16 16 76 9 130 -24 183 -30 49 -39 75 -22 65 11 -7 29 34 26 64
-3 48 -27 79 -81 107 -63 33 -75 27 -80 -43 -3 -34 1 -55 16 -79 l20 -33 -40
-7 c-22 -4 -42 -11 -46 -16 -3 -5 -10 -7 -15 -4 -21 14 -7 -16 23 -45 36 -36
63 -48 98 -44 14 1 30 3 37 3 6 1 19 8 28 17 29 29 44 2 41 -74 -5 -98 -8
-105 -119 -274 -75 -116 -77 -117 -126 -64 -14 14 -21 26 -17 26 5 0 3 6 -3
14 -12 15 -13 114 -1 121 4 3 6 31 4 64 -3 58 -22 110 -51 140 -13 13 -13 16
-1 25 8 6 16 16 18 21 1 6 5 16 7 23 18 44 -49 150 -75 119 -6 -7 -15 -30 -19
-51 l-8 -38 -27 21 c-28 23 -80 27 -122 12 -32 -13 -25 -40 24 -92 28 -29 45
-39 69 -39 37 0 84 27 74 44 -4 6 1 5 10 -3 9 -7 14 -18 10 -25 -3 -6 -3 -8 2
-4 5 5 20 -9 34 -30 21 -30 25 -48 25 -97 0 -33 -4 -76 -8 -95 -20 -98 -6
-150 59 -209 29 -26 33 -35 25 -55 -5 -13 -7 -52 -5 -85 3 -62 3 -62 -19 -47
-11 9 -45 30 -74 47 -29 17 -81 59 -116 93 -53 53 -64 69 -69 107 -3 27 -2 48
5 54 8 7 9 5 5 -6 -10 -30 62 0 79 32 20 39 19 99 -2 99 -26 0 -54 -20 -73
-52 l-19 -30 -18 31 c-10 17 -23 32 -30 35 -20 8 -36 -21 -38 -64 0 -30 6 -46
29 -70 21 -22 31 -27 37 -18 4 7 8 11 9 8 0 -3 2 -20 5 -39 2 -19 15 -49 29
-67 26 -34 32 -50 15 -39 -39 24 -188 29 -245 7 -25 -9 -45 -20 -45 -25 0 -5
8 -6 17 -2 74 29 210 9 307 -45 51 -29 79 -60 55 -60 -6 0 -32 -15 -58 -33
-89 -65 -156 -80 -198 -46 -8 7 -34 13 -56 12 -33 -1 -48 -8 -69 -32 -16 -17
-28 -35 -28 -40 0 -10 40 -24 87 -32 32 -5 83 25 83 49 0 7 18 10 47 8 50 -3
113 11 113 26 0 4 5 8 11 8 6 0 25 11 42 24 49 38 79 39 116 6 68 -62 191
-219 191 -243 0 -13 -17 -22 -55 -28 -5 -1 -21 -6 -35 -11 -14 -5 -36 -12 -50
-14 -14 -3 -33 -7 -42 -10 -10 -3 -19 2 -23 16 -7 23 -60 65 -92 73 -36 8 -35
-8 0 -21 27 -10 67 -55 67 -76 0 -6 -57 -22 -115 -32 -22 -4 -85 -7 -140 -8
-86 0 -107 3 -147 24 -26 13 -62 37 -79 54 -30 29 -28 13 3 -24 61 -74 224
-112 375 -87 18 3 35 2 37 -2 7 -11 -112 -139 -145 -156 -15 -8 -42 -15 -60
-15 -38 0 -36 -7 4 -14 57 -10 156 56 222 147 25 34 58 57 93 63 15 3 45 10
67 16 22 5 47 11 55 13 8 2 34 8 58 14 43 12 62 9 62 -11 0 -5 10 -24 22 -41
13 -18 22 -33 20 -35 -1 -1 10 -28 25 -60 54 -115 184 -209 333 -242 88 -19
88 -19 30 -49 l-55 -28 -32 28 c-37 32 -41 33 -153 53 -116 21 -131 24 -162
37 -34 14 -34 16 -6 46 23 24 27 68 8 103 -6 11 -15 18 -21 15 -5 -4 -9 4 -9
18 0 27 -38 73 -51 60 -19 -19 -36 -65 -32 -86 3 -13 17 -31 31 -40 15 -9 21
-17 13 -17 -11 0 -11 -3 -1 -15 11 -14 10 -14 -16 -4 -16 6 -44 12 -62 13 -31
2 -33 1 -27 -23 12 -53 72 -83 114 -57 5 3 11 0 14 -7 4 -12 66 -48 90 -53 4
-1 8 -2 10 -4 5 -4 43 -12 77 -15 86 -9 178 -51 157 -71 -16 -16 -143 -40
-212 -39 -86 1 -136 17 -257 79 -48 26 -66 42 -88 82 -16 27 -26 52 -24 56 7
12 -85 85 -105 83 -28 -2 -35 -10 -9 -12 31 -3 67 -41 98 -106 28 -57 28 -58
7 -51 -84 27 -212 40 -232 24 -5 -5 -13 -9 -17 -9 -28 -5 -82 -41 -60 -41 5 0
12 3 16 8 4 4 11 7 14 8 4 0 14 4 22 7 28 13 95 14 140 2 25 -7 52 -14 60 -16
15 -4 226 -110 292 -147 20 -11 39 -18 43 -14 4 4 4 -4 0 -18 -17 -56 -70 -90
-130 -84 -90 10 -171 11 -187 3 -13 -7 -18 -6 -18 5 0 17 -30 36 -57 36 -24 0
-85 -44 -75 -54 15 -15 74 -36 85 -29 6 3 3 -4 -6 -17 -12 -17 -14 -27 -6 -37
6 -7 9 -19 6 -27 -15 -39 62 -14 80 26 5 13 8 35 6 50 l-4 27 68 -5 c37 -2 77
-7 88 -11 63 -20 132 4 168 59 l27 42 103 1 c83 2 117 7 182 30 44 15 96 36
117 47 l36 21 37 -23 c33 -20 46 -22 115 -17 43 3 84 9 91 13 15 9 58 13 75 7
6 -2 -2 -19 -20 -38 -48 -52 -58 -66 -53 -71 2 -2 23 13 46 35 55 52 77 59
102 32 10 -11 19 -26 19 -34 0 -8 -37 -36 -82 -62 -46 -26 -84 -52 -86 -56 -6
-14 -24 -10 -19 4 2 6 1 22 -4 34 -5 15 -4 23 6 27 8 3 11 13 8 25 -9 35 -71
44 -100 16 -19 -19 -16 -30 12 -45 l24 -13 -19 -25 c-22 -27 -27 -62 -9 -62
23 0 -6 -22 -58 -45 -111 -49 -188 -59 -245 -30 -36 18 -85 10 -116 -19 -22
-19 -22 -21 -6 -33 28 -20 70 -16 91 10 19 23 43 33 43 19 0 -9 49 -15 112
-13 20 0 69 12 109 25 41 14 75 24 76 22 1 -1 -14 -34 -34 -74 -25 -51 -43
-75 -64 -84 -38 -17 -37 -30 1 -16 38 13 83 67 105 127 10 25 24 54 32 63 20
22 179 113 223 126 72 23 182 31 245 18 17 -3 41 -8 54 -11 36 -7 37 -12 7
-40 -24 -22 -58 -36 -126 -49 -81 -16 -129 -37 -174 -76 -36 -32 -62 -85 -45
-95 5 -4 9 2 9 13 0 44 85 97 189 118 116 23 176 47 206 82 22 25 23 26 49 9
21 -14 26 -25 26 -60 1 -23 0 -251 0 -507 -2 -750 -2 -750 -33 -750 -7 0 -36
-11 -65 -25 -53 -25 -125 -36 -254 -39 -37 -1 -70 -5 -74 -8 -3 -4 -12 -4 -20
-1 -8 3 -14 1 -14 -4 0 -5 -11 -10 -25 -11 -14 -1 -51 -11 -82 -23 -32 -12
-70 -24 -85 -26 -16 -3 -28 -10 -28 -16 0 -6 -3 -8 -6 -5 -3 3 -31 -20 -62
-52 -61 -61 -81 -66 -129 -35 -12 8 -30 15 -39 15 -10 0 -15 3 -12 6 7 6 -50
64 -63 64 -16 0 3 -28 27 -38 13 -7 24 -18 24 -26 0 -12 -11 -10 -55 9 -30 14
-55 21 -55 17 0 -4 -7 2 -15 12 -8 11 -15 16 -15 12 0 -4 -26 7 -57 24 -31 17
-51 24 -44 16 8 -9 19 -16 26 -16 8 0 15 -4 17 -9 4 -12 138 -82 168 -87 14
-3 60 -17 103 -31 43 -14 81 -23 84 -20 3 3 15 2 28 -3 15 -6 27 -4 34 3 10 9
12 9 9 -3 -2 -8 -7 -18 -13 -22 -6 -4 -2 -8 7 -8 16 0 15 -3 -5 -27 -12 -16
-51 -56 -87 -90 -35 -35 -60 -63 -55 -63 6 0 22 13 37 30 30 34 42 30 25 -8
-16 -36 -26 -42 -54 -31 -12 5 -23 6 -23 3 0 -2 -10 1 -22 8 -13 6 -39 13 -58
14 -50 3 -87 12 -156 40 -33 13 -65 24 -71 24 -6 0 -13 3 -15 8 -3 7 -148 84
-148 78 0 -3 43 -33 105 -72 17 -10 55 -30 86 -44 30 -14 55 -29 55 -35 -1 -5
-4 -9 -8 -8 -5 2 -8 -2 -8 -8 0 -7 7 -8 18 -4 9 4 25 7 35 7 33 -1 157 -35
152 -41 -2 -4 11 -5 28 -4 49 5 60 -7 52 -56 -5 -28 -12 -41 -23 -42 -10 -1
-21 -2 -27 -4 -5 -1 -26 -3 -45 -4 l-35 -3 33 -9 c21 -6 39 -6 51 1 29 15 41
12 41 -10 0 -11 5 -20 11 -20 7 0 9 9 6 21 -4 15 0 23 14 26 10 3 19 10 19 15
0 5 4 7 9 3 6 -3 6 -18 1 -36 -8 -28 -7 -29 7 -17 9 7 17 11 19 8 1 -3 6 -1
11 3 4 5 2 7 -6 5 -7 -2 -16 3 -19 11 -3 9 0 11 7 7 6 -4 10 -3 9 4 -4 13 114
80 160 90 27 7 32 5 32 -10 0 -10 -7 -26 -16 -34 -8 -9 -13 -16 -9 -16 4 0 0
-7 -9 -15 -17 -18 -78 -45 -115 -52 -14 -2 -31 -9 -37 -14 -7 -5 -45 -11 -86
-12 -43 -1 -75 -6 -75 -12 0 -11 124 -12 134 -1 3 3 12 1 20 -5 8 -7 13 -7 13
-2 0 6 21 16 48 23 26 8 49 17 52 21 3 3 22 16 43 28 l37 21 -15 -23 c-8 -13
-12 -27 -8 -30 3 -4 1 -7 -5 -7 -10 0 -19 -28 -26 -87 -3 -18 -7 -43 -11 -55
-4 -16 -4 -19 3 -9 9 13 13 0 27 -79 0 -3 6 -14 14 -25 l13 -20 -7 20 c-12 36
-22 114 -14 109 4 -2 11 0 14 6 4 6 1 9 -7 8 -8 -2 -13 6 -13 21 0 19 6 24 28
25 29 2 37 -11 12 -20 -8 -4 -12 -11 -9 -16 4 -5 15 3 25 19 11 17 19 22 20
13 0 -9 4 -7 11 8 16 33 25 27 26 -20 2 -53 12 -63 13 -15 1 21 2 43 3 49 1
13 61 47 83 48 6 0 11 -9 10 -20 -1 -14 -7 -20 -21 -18 -10 2 -21 -2 -23 -8
-2 -7 4 -11 14 -10 14 1 18 -6 18 -34 0 -19 -3 -40 -7 -46 -5 -6 -1 -11 7 -11
8 0 15 6 15 14 0 7 6 13 14 13 7 0 19 7 26 15 17 20 30 19 24 -2 -2 -10 1 -8
7 5 15 27 29 29 29 3 0 -20 -57 -71 -79 -71 -7 0 -9 -6 -6 -13 4 -6 0 -4 -8 5
-19 24 -30 23 -18 -1 8 -14 5 -21 -13 -31 -13 -7 -29 -9 -35 -5 -6 3 -10 1 -9
-5 4 -17 -97 -51 -154 -52 -27 -1 -48 -5 -48 -10 0 -15 162 5 185 22 14 11 85
40 85 35 0 -2 -7 -11 -16 -20 -9 -9 -14 -18 -11 -21 3 -3 11 3 18 12 8 10 39
42 69 71 l54 53 13 -23 c6 -13 13 -35 15 -50 4 -27 18 -50 18 -28 0 7 5 9 10
6 19 -11 10 -32 -12 -31 -17 1 -24 -5 -26 -21 -4 -25 13 -32 21 -9 8 21 47 27
54 9 6 -16 -40 -63 -61 -63 -5 0 -17 -6 -25 -14 -9 -8 -30 -22 -46 -30 -28
-15 -29 -16 -6 -16 13 0 46 14 73 30 51 32 63 36 53 20 -3 -6 -2 -10 2 -10 5
0 14 10 21 21 13 21 14 21 58 -22 24 -24 44 -40 44 -37 0 4 -11 18 -25 32 -14
14 -25 30 -25 36 0 5 -4 10 -10 10 -5 0 -10 4 -10 10 0 5 4 9 9 7 4 -1 18 9
29 23 12 14 21 19 22 12 0 -7 5 -10 10 -7 6 4 8 11 5 16 -4 5 1 9 9 9 9 0 16
5 16 11 0 13 46 59 58 59 10 -1 47 -30 38 -30 -5 0 -3 -7 4 -15 14 -17 35 -21
25 -5 -8 13 28 0 37 -14 4 -6 8 -14 8 -19 0 -13 -57 -67 -71 -67 -10 0 -10 -3
-1 -12 9 -9 16 -7 32 10 23 25 39 30 20 7 -10 -11 -10 -19 -2 -27 6 -6 8 -17
5 -24 -7 -19 24 -29 51 -16 17 8 27 7 37 -1 10 -10 11 -9 2 3 -9 12 -4 23 23
52 19 21 34 34 35 30 2 -24 8 -45 15 -50 4 -4 5 0 1 10 -3 9 -3 19 1 22 3 4 7
21 7 39 2 35 24 84 25 57 1 -8 3 -25 6 -37 2 -13 -1 -23 -6 -23 -6 0 -1 -9 10
-20 11 -11 20 -29 20 -40 0 -11 5 -20 11 -20 5 0 8 -4 5 -9 -3 -5 0 -11 7 -14
9 -3 13 4 12 23 0 16 -2 27 -4 24 -7 -6 -33 49 -36 76 -2 14 -4 25 -5 25 -2 0
-4 10 -5 22 -3 30 6 29 47 -3 28 -22 27 -21 -4 9 -44 39 -51 81 -17 90 12 3
22 0 26 -9 3 -8 11 -13 18 -10 13 4 48 -58 38 -68 -3 -3 -14 5 -25 17 -17 19
-17 18 1 -10 13 -19 17 -34 11 -38 -17 -11 -11 -21 15 -23 22 -1 24 1 17 15
-8 13 -4 21 13 35 30 23 30 23 53 -13 18 -30 19 -34 4 -73 -9 -22 -19 -43 -22
-46 -3 -3 -11 -14 -19 -25 -7 -11 3 -2 23 19 20 22 36 45 36 52 0 31 23 21 81
-36 38 -36 71 -60 83 -59 12 0 15 3 9 6 -7 2 -13 10 -13 17 0 7 -11 18 -25 24
-17 8 -23 17 -19 29 4 13 3 14 -3 5 -8 -10 -18 -4 -46 25 -37 38 -46 66 -26
79 12 7 60 -46 53 -58 -2 -4 0 -10 6 -13 6 -4 10 -3 9 2 -3 18 2 23 14 13 63
-53 67 -56 67 -41 0 5 -20 22 -45 38 -26 16 -45 36 -45 46 0 10 -4 16 -9 13
-5 -3 -16 5 -25 19 -9 14 -12 25 -6 25 5 0 10 9 10 19 0 11 4 22 9 25 14 9 41
-4 41 -20 0 -8 5 -14 10 -14 6 0 10 4 10 10 0 5 18 3 40 -5 22 -8 40 -12 40
-10 0 2 16 -3 35 -11 20 -8 40 -12 45 -9 6 4 7 -1 3 -11 -5 -13 -3 -15 8 -8 8
5 45 9 82 10 51 0 66 -3 63 -13 -3 -7 0 -15 7 -19 7 -4 9 -4 5 1 -4 4 -3 14 3
21 13 16 61 8 72 -12 4 -8 15 -14 22 -14 8 0 15 -5 15 -12 0 -6 3 -9 6 -5 3 3
-20 31 -51 62 -50 49 -55 58 -44 73 7 9 9 14 5 10 -10 -9 -38 40 -31 52 3 5 1
11 -3 14 -7 4 -8 16 -3 58 2 13 90 -44 131 -84 23 -23 51 -60 62 -81 27 -55
33 -40 7 19 -23 52 -83 109 -160 151 -59 34 -157 114 -192 158 l-28 35 28 -1
c15 0 39 3 52 7 17 5 22 4 17 -4 -4 -7 -2 -10 7 -7 13 6 87 -67 87 -86 0 -7
-43 -4 -77 7 -7 2 -13 -1 -13 -6 0 -6 11 -10 24 -10 59 0 89 -14 146 -71 32
-33 63 -59 68 -59 5 0 16 -7 23 -16 7 -9 23 -20 35 -25 13 -4 28 -17 33 -28
11 -19 10 -20 -24 -5 -19 8 -35 12 -35 9 0 -3 14 -11 30 -16 17 -6 31 -17 31
-25 3 -28 4 -32 13 -41 5 -4 6 -3 2 4 -3 6 -2 14 3 17 5 3 12 -1 15 -10 3 -9
11 -12 18 -8 8 5 9 2 5 -9 -7 -18 8 -33 18 -17 3 5 -5 21 -18 34 -16 16 -21
27 -14 30 7 3 1 3 -13 -1 -20 -5 -23 -3 -13 8 6 8 12 17 12 22 1 9 3 9 26 2
11 -4 25 -9 32 -10 21 -7 56 -88 57 -132 1 -23 4 -44 7 -47 3 -4 5 12 4 34 -1
22 2 40 8 40 5 0 0 16 -12 36 -27 45 -27 61 2 61 36 -1 97 14 97 24 0 5 -10 5
-23 0 -22 -9 -68 -14 -93 -12 -7 1 -26 23 -44 50 -17 27 -51 69 -76 93 -24 23
-44 46 -44 50 0 15 26 8 47 -11 13 -12 25 -16 34 -11 7 5 18 6 24 3 5 -4 6 -2
2 3 -5 5 -14 9 -20 9 -32 0 -87 75 -87 119 0 13 149 -2 160 -15 3 -4 29 -18
58 -33 30 -15 58 -37 64 -52 7 -15 14 -20 18 -13 5 6 19 -7 36 -35 16 -25 34
-47 41 -50 15 -6 -36 68 -75 111 -17 17 -33 29 -36 26 -3 -4 -6 -1 -6 5 0 7
-7 12 -15 12 -8 0 -15 4 -15 9 0 5 -9 13 -20 16 -11 4 -17 11 -14 17 5 7 1 9
-9 5 -10 -3 -17 -2 -17 3 0 5 -7 7 -15 4 -8 -4 -27 2 -41 11 -19 12 -29 14
-34 6 -5 -8 -14 -9 -32 -2 -14 5 -28 7 -31 4 -6 -5 -90 -13 -169 -16 -29 -1
-44 -5 -41 -12 3 -5 0 -4 -8 3 -7 6 -23 12 -36 12 -13 0 -23 5 -23 10 0 6 -9
10 -19 10 -11 0 -26 6 -33 13 -7 8 -18 12 -25 10 -6 -2 -25 3 -42 12 -17 8
-32 15 -33 15 -12 -4 -188 72 -196 85 -12 19 -12 45 1 45 38 -1 201 -71 218
-94 4 -4 8 -3 10 3 6 16 65 -3 61 -20 -3 -10 0 -11 8 -3 11 11 63 7 56 -5 -3
-4 7 -7 22 -7 15 -1 47 -4 72 -8 25 -3 65 -8 90 -10 25 -3 54 -8 65 -11 16 -5
15 -2 -7 18 -18 17 -34 23 -48 20 -20 -5 -26 10 -21 59 1 10 -2 18 -7 18 -5 0
-14 11 -20 25 -12 25 -10 27 56 57 82 38 72 34 100 43 12 4 22 11 22 16 0 4
11 6 25 3 14 -2 25 0 25 6 0 5 -3 9 -7 9 -26 -4 -21 4 14 29 60 40 116 92 108
100 -3 4 -11 -1 -16 -11 -6 -9 -16 -17 -22 -17 -7 0 -19 -9 -27 -20 -8 -11
-18 -20 -21 -20 -4 0 -31 -16 -60 -35 -30 -19 -58 -35 -63 -35 -5 0 -19 -8
-30 -17 l-20 -18 19 30 c25 39 33 47 83 79 23 14 42 28 42 31 0 3 -14 -4 -32
-15 -17 -10 -35 -17 -39 -14 -4 2 -20 -14 -37 -36 -35 -48 -78 -84 -91 -75 -5
3 -13 0 -17 -6 -5 -8 -3 -9 6 -4 8 5 11 4 7 -3 -4 -5 -17 -8 -29 -4 -16 4 -19
2 -13 -9 4 -8 -17 10 -46 40 -29 29 -64 61 -78 70 l-25 16 54 6 55 7 -55 0
c-30 0 -57 1 -60 2 -3 1 -13 3 -24 5 -37 7 -38 22 -2 39 20 9 36 21 36 27 0 6
5 7 10 4 6 -3 10 -1 10 4 0 16 -8 14 -40 -9 -51 -36 -77 -41 -133 -25 -77 22
-137 28 -293 29 -93 1 -146 5 -155 13 -8 7 -29 10 -46 7 -64 -10 -62 -21 -64
469 0 243 -1 520 -2 615 0 94 3 175 6 178 16 16 262 47 377 48 135 1 162 -6
224 -63 l30 -26 -19 30 c-22 36 -40 51 -83 70 -33 15 -118 30 -159 28 -31 0
-29 7 15 50 l37 36 38 -34 c44 -40 76 -58 130 -73 52 -15 46 -2 -14 28 -28 13
-62 37 -75 53 -26 31 -32 53 -11 41 8 -5 7 -2 -2 9 -8 10 -16 15 -19 13 -7 -8
-43 14 -38 23 5 7 58 20 101 26 6 1 39 7 75 14 64 12 67 12 133 -19 37 -17 69
-30 72 -30 3 0 18 -6 33 -14 25 -13 124 -39 184 -50 27 -5 81 -49 84 -70 9
-56 14 -75 24 -98 7 -15 25 -35 39 -44 l26 -17 -21 24 c-30 34 -36 47 -41 86
l-5 36 28 -20 c67 -47 154 -76 154 -52 0 6 -9 9 -20 6 -11 -3 -20 -1 -20 4 0
5 -3 8 -7 7 -16 -5 -89 47 -127 89 l-39 43 44 1 c67 2 101 7 111 17 14 14 46
2 53 -19 4 -10 21 -31 40 -45 41 -31 86 -33 170 -9 86 24 95 26 141 27 55 2
72 -10 44 -29 -33 -23 -40 -53 -22 -85 17 -29 42 -38 42 -15 0 6 12 -9 27 -35
14 -27 30 -48 33 -48 14 0 30 27 35 61 7 41 -25 92 -50 82 -10 -3 -13 -1 -10
9 4 9 19 15 40 15 20 0 44 8 55 18 l21 19 -22 17 c-26 20 -72 17 -95 -5 -13
-14 -17 -13 -34 1 -35 31 -104 32 -200 4 -71 -20 -96 -19 -140 4 -48 25 -66
85 -26 85 8 0 16 3 18 8 3 7 39 33 158 113 36 24 67 46 70 49 7 7 103 55 110
55 3 0 11 4 19 9 21 14 161 18 161 5 0 -8 6 -7 18 2 9 7 14 10 10 5 -4 -5 2
-20 12 -34 11 -13 20 -31 20 -38 0 -19 41 -44 73 -44 26 0 29 2 23 26 -10 39
-33 57 -74 59 -19 0 -37 5 -39 11 -2 6 8 9 24 7 19 -3 36 3 51 18 21 19 22 23
9 36 -24 24 -77 20 -102 -9 -18 -20 -26 -23 -46 -16 -29 12 -142 4 -184 -12
-16 -6 -30 -10 -30 -9 0 2 -14 -5 -32 -16 -39 -23 -48 -17 -32 21 7 16 18 45
26 64 8 19 31 50 51 68 37 33 37 33 7 21 -16 -7 -40 -23 -52 -35 -19 -19 -52
-82 -57 -109 -9 -50 -34 -78 -120 -133 -113 -73 -152 -90 -224 -96 -18 -2 -35
-6 -38 -8 -2 -3 -21 -3 -42 -1 -49 6 -102 11 -129 12 -30 1 -29 12 4 45 23 23
85 48 150 60 31 6 113 47 113 57 0 5 6 9 13 9 12 0 53 59 50 71 -1 3 12 3 28
1 37 -6 69 21 69 58 0 35 -6 40 -40 30 -27 -8 -28 -7 -17 10 6 11 13 17 16 15
2 -3 12 2 21 10 15 14 18 13 28 -10 15 -32 48 -45 86 -34 47 14 51 25 22 54
-14 14 -26 28 -26 30 0 2 14 17 30 33 45 45 38 70 -17 63 -7 -1 -13 3 -13 8 0
12 82 26 135 22 38 -2 85 -23 113 -48 7 -7 16 -13 20 -13 4 1 -12 18 -36 40
-55 49 -106 61 -207 47 -56 -9 -78 -15 -135 -39 -59 -26 -59 -20 -10 88 36 78
84 134 116 134 13 0 24 5 24 10 0 14 -43 5 -78 -15 -35 -21 -84 -93 -112 -164
-27 -69 -54 -107 -90 -126 -16 -8 -31 -15 -34 -15 -22 0 113 277 192 395 96
144 107 149 214 96 64 -32 121 -41 166 -26 32 10 27 21 -8 19 -16 -1 -30 2
-30 7 0 5 8 9 18 9 38 1 72 53 69 107 -1 17 -5 35 -9 39 -12 11 -67 -16 -88
-44 -21 -26 -27 -86 -10 -97 6 -3 10 -10 10 -15 0 -12 -31 0 -122 45 l-69 34
23 21 c39 36 120 86 173 106 36 14 75 19 138 18 84 0 91 8 18 22 -39 8 -42 13
-25 46 10 19 11 29 4 26 -6 -2 -12 -8 -12 -13 0 -6 -9 -16 -19 -23 -21 -14
-111 -43 -117 -37 -5 5 -175 -81 -199 -102 -12 -10 -40 -34 -63 -52 -24 -19
-49 -41 -56 -48 -11 -12 -13 -6 -12 31 0 24 -5 67 -12 96 -12 51 -12 52 17 83
34 36 54 81 57 127 4 52 44 82 130 95 41 7 73 8 70 3 -3 -4 -12 -8 -20 -8 -8
0 -12 -4 -9 -10 3 -5 0 -10 -7 -10 -27 0 39 -50 72 -54 36 -5 102 19 104 39 2
16 -66 55 -96 55 -28 0 -29 1 -14 22 30 42 19 87 -19 78 -30 -6 -41 -9 -53 -9
-17 -1 -44 -65 -36 -86 5 -13 1 -15 -22 -12 -31 4 -70 -9 -93 -31 -13 -12 -17
-6 -32 42 -10 31 -19 73 -20 94 -2 37 26 112 42 112 5 0 9 6 9 12 0 22 -53
-43 -66 -80 -13 -40 -10 -119 8 -172 19 -55 19 -67 0 -43 -9 12 -28 24 -42 25
-23 3 -25 0 -23 -31 1 -38 27 -65 56 -57 9 2 17 0 17 -6 0 -17 -42 -87 -56
-92 -7 -3 -37 23 -66 56 -29 34 -58 66 -63 72 -32 34 -76 97 -98 142 -30 60
-42 134 -22 134 7 0 15 -5 17 -10 2 -6 25 -13 51 -16 45 -6 49 -4 82 31 56 58
44 81 -53 100 l-33 7 33 16 c18 10 39 30 47 45 15 34 19 123 5 137 -14 14 -93
-28 -117 -62 -19 -26 -31 -98 -16 -98 4 0 6 -9 4 -20 -3 -15 2 -20 18 -20 20
-1 20 -2 4 -11 -9 -5 -23 -7 -30 -3 -6 4 -9 3 -4 -1 4 -5 0 -16 -8 -25 -33
-36 -39 -134 -13 -209 18 -55 57 -129 81 -153 24 -24 59 -79 54 -84 -2 -2 -17
-8 -33 -13 -33 -9 -87 5 -66 18 22 13 25 65 5 83 -27 24 -45 25 -50 3 -10 -44
-10 -61 0 -72 5 -7 6 -13 3 -13 -4 0 -1 -7 8 -15 8 -8 21 -15 30 -15 8 0 17
-4 20 -8 5 -9 53 -7 97 4 23 5 28 1 47 -40 60 -128 49 -230 -42 -375 l-40 -64
-20 44 c-21 48 -35 96 -43 146 -5 29 -3 32 17 28 14 -3 31 5 46 20 42 42 25
76 -29 56 -25 -10 -26 -9 -15 9 7 11 15 20 18 20 11 0 -3 90 -15 100 -10 8
-19 3 -39 -20 -31 -38 -33 -63 -6 -98 13 -16 17 -28 10 -32 -14 -9 -18 -75 -9
-125 15 -76 17 -83 38 -126 12 -23 21 -50 21 -59 0 -17 -37 -113 -72 -190 -40
-86 -136 -210 -140 -180 -3 31 -4 35 -9 45 -10 17 -33 90 -31 98 1 4 -2 7 -7
7 -5 0 -11 14 -15 31 -4 23 0 41 15 65 24 39 89 95 101 88 4 -3 8 0 8 6 0 25
-98 -25 -125 -63 -18 -26 -23 -22 -26 28 -3 58 10 103 37 124 13 10 20 21 17
25 -9 9 -73 -63 -73 -83 -1 -9 -7 -2 -15 16 -15 35 -41 53 -78 53 -23 0 -24
-2 -17 -36 10 -43 36 -65 71 -61 26 3 26 2 27 -61 0 -35 3 -66 6 -69 6 -7 -18
-56 -42 -84 -23 -28 -100 -64 -137 -64 -27 0 -30 3 -28 30 1 17 4 75 8 130 3
55 7 115 8 132 1 18 6 33 11 33 5 0 7 3 3 6 -8 9 21 84 48 124 14 20 38 43 55
53 l30 18 0 -25 c0 -41 68 -74 117 -55 41 15 6 66 -76 111 -26 14 -30 21 -23
35 11 21 8 56 -7 96 -13 32 -27 34 -52 6 -34 -40 -36 -114 -4 -149 16 -17 15
-19 -7 -30 -49 -26 -117 -127 -134 -202 -17 -72 -23 -111 -28 -183 -6 -89 -14
-122 -44 -180 -23 -46 -83 -115 -99 -115 -6 0 -13 -4 -15 -9 -4 -12 -158 -83
-236 -109 l-62 -20 36 49 c44 61 64 123 53 164 -10 34 1 46 61 72 47 21 152
24 186 7 36 -19 41 -18 13 5 -28 21 -104 40 -140 33 -65 -11 -74 -9 -71 21 3
21 -1 27 -17 27 -11 0 -26 -7 -35 -15 -18 -19 -37 -20 -30 -2 7 20 -27 58 -53
60 -13 1 -23 4 -23 8 0 10 33 37 60 49 23 10 22 10 -10 5 -69 -11 -109 -76
-134 -219 -16 -92 -37 -136 -83 -170 l-25 -18 5 78 c6 95 34 180 79 237 42 54
43 55 108 106 50 39 58 43 100 39 32 -3 54 -13 75 -32 46 -43 125 -78 125 -57
0 6 -3 10 -7 9 -21 -4 -124 65 -113 75 3 3 25 7 50 10 25 3 54 9 65 13 31 12
76 57 71 70 -3 7 4 20 15 30 10 9 19 14 19 10 0 -3 13 0 29 8 38 20 56 69 52
139 -1 16 -6 17 -33 11 -53 -11 -103 -81 -83 -115 5 -6 -6 -1 -24 12 -37 28
-49 20 -57 -40 -5 -35 -2 -47 16 -66 l23 -24 -29 -12 c-28 -11 -181 -16 -190
-6 -3 3 10 25 29 50 19 25 37 56 40 69 4 14 23 33 45 46 21 12 60 43 86 69 48
48 101 135 89 147 -4 3 -1 6 5 6 7 0 11 5 10 11 -2 7 20 17 47 23 105 25 132
51 185 176 40 94 103 186 120 175 5 -3 12 -1 15 5 4 6 15 8 25 5 10 -3 21 -1
25 4 3 6 0 8 -8 5 -8 -3 -18 -1 -21 5 -4 5 2 12 13 16 37 11 48 76 29 167 -6
27 -13 29 -49 14 -89 -37 -120 -121 -72 -195 12 -18 13 -26 4 -29 -35 -12 -88
-91 -128 -192 l-10 -25 -22 35 c-23 39 -26 104 -4 122 7 6 13 15 13 20 0 21
-32 -24 -41 -58 -12 -40 -4 -87 19 -123 16 -23 15 -25 -17 -52 -30 -24 -105
-48 -117 -37 -2 2 -5 74 -7 159 -6 258 21 341 132 419 26 18 37 21 51 12 28
-17 90 -26 90 -13 0 7 4 10 9 7 9 -6 91 60 91 73 0 15 -76 41 -107 36 -39 -5
-71 -27 -99 -69 -11 -17 -26 -30 -32 -29 -7 2 -12 -2 -12 -7 0 -6 -6 -10 -14
-10 -36 0 -136 -137 -136 -185 0 -24 -16 -18 -50 21 -25 29 -31 44 -27 67 3
25 2 27 -8 14 -18 -25 -6 -72 30 -114 l32 -38 -3 -160 c-3 -175 -6 -198 -35
-264 l-19 -44 -20 23 c-11 13 -20 31 -20 41 0 10 -5 21 -12 25 -17 11 -2 -65
18 -87 15 -17 15 -20 1 -43 -16 -24 -78 -76 -90 -76 -5 0 -23 52 -33 95 -1 6
-14 41 -28 79 l-26 69 20 32 c11 18 20 40 20 49 0 24 25 19 27 -5 2 -28 29
-56 59 -62 19 -3 26 1 30 19 3 12 2 29 -2 36 -4 7 2 5 13 -5 36 -32 74 3 78
71 0 13 -3 26 -7 28 -4 3 -8 14 -8 25 0 19 -17 25 -35 11 -20 -14 -41 -57 -39
-79 2 -28 0 -28 -23 -4 -20 20 -63 34 -63 20 0 -5 -4 -9 -9 -9 -6 0 -10 8 -9
18 1 25 -8 82 -21 127 -6 22 -10 44 -10 49 0 5 -5 12 -12 17 -15 9 -9 12 42
23 26 6 46 33 54 74 5 28 -12 36 -49 22 -23 -9 -27 -8 -25 8 4 29 -11 79 -30
97 -18 15 -20 14 -41 -15 -37 -52 -10 -140 39 -127 17 4 18 2 8 -13 -6 -10
-15 -16 -21 -13 -5 4 -6 1 -1 -7 4 -7 9 -31 11 -54 1 -22 7 -52 12 -66 14 -39
14 -142 -1 -170 -13 -25 -44 -35 -40 -12 2 6 -2 12 -8 12 -6 0 -9 6 -6 14 3 7
2 17 -2 22 -9 11 -34 81 -52 149 -8 28 -14 93 -14 145 0 87 3 101 32 161 53
106 149 183 299 237 34 12 63 22 66 22 3 0 11 -14 18 -30 15 -36 37 -50 77
-50 58 0 67 37 20 80 -15 14 -17 20 -6 20 12 0 12 2 0 9 -10 7 -6 13 17 26 38
23 60 68 59 125 0 66 -9 72 -65 45 -26 -12 -55 -32 -66 -43 -20 -23 -33 -100
-22 -129 9 -23 7 -26 -27 -30 -16 -2 -62 -14 -104 -28 -42 -14 -78 -23 -81
-20 -11 11 -8 111 4 143 15 37 50 71 74 72 13 0 13 1 0 10 -8 5 -10 10 -4 10
14 0 44 64 44 93 0 22 -48 107 -60 107 -12 -1 -37 -28 -58 -61 -30 -49 -29
-97 3 -131 29 -31 31 -44 11 -51 -26 -10 -46 -64 -50 -132 -4 -62 -7 -69 -37
-94 -19 -14 -59 -52 -90 -83 l-57 -57 -10 27 c-6 15 -24 42 -41 60 l-30 33 20
39 c21 41 26 66 15 90 -4 10 5 20 26 31 17 8 40 26 49 40 20 26 34 83 18 74
-5 -4 -9 -12 -9 -19 0 -21 -35 -55 -73 -71 l-36 -15 -45 52 c-48 55 -65 103
-48 134 6 11 11 24 12 29 0 6 9 9 18 7 60 -11 101 16 123 82 18 54 12 113 -12
108 -8 -2 -21 -5 -30 -7 -42 -8 -109 -81 -95 -103 2 -4 1 -14 -5 -22 -7 -13
-9 -13 -9 1 0 19 -68 89 -86 89 -24 0 -39 -79 -24 -126 12 -35 56 -78 71 -68
9 5 13 -9 10 -35 -4 -27 31 -94 69 -133 44 -45 52 -78 30 -126 -11 -25 -18
-31 -35 -26 -44 14 -213 92 -253 118 l-43 27 38 40 c21 22 46 54 56 72 17 31
24 127 9 127 -4 0 -7 -18 -6 -40 1 -44 -10 -45 -19 -1 -4 19 -18 36 -42 51
-42 26 -41 39 1 17 26 -14 30 -13 45 4 34 39 -1 119 -52 119 -33 0 -34 -1 -31
-18 2 -13 -2 -12 -17 6 -19 22 -21 22 -41 5 -48 -40 -73 -105 -56 -144 6 -14
-1 -16 -43 -15 -35 1 -51 5 -51 14 0 7 3 11 8 8 13 -8 43 21 45 45 1 13 -4 40
-11 59 l-13 35 -29 -32 c-25 -28 -29 -40 -26 -76 2 -24 8 -52 13 -63 5 -10 8
-25 7 -31 -1 -7 -2 -22 -3 -34 -1 -26 -21 -15 -21 13 0 11 -15 35 -32 52 -18
18 -31 31 -29 29 2 -1 11 3 19 10 13 10 14 9 7 -3 -8 -13 -6 -13 8 -2 20 17
20 75 1 114 -12 23 -74 78 -74 65 0 -3 -16 -1 -35 3 -19 4 -36 5 -38 1z m427
-280 c8 -7 24 -13 35 -14 12 -1 21 -6 21 -13 0 -19 -88 -94 -103 -88 -13 5
-19 14 -46 74 -10 24 -11 23 -7 -10 2 -19 9 -47 16 -63 7 -15 11 -29 9 -30 -2
-2 -44 -28 -93 -57 l-89 -53 -18 24 c-24 32 -24 87 0 113 28 30 71 119 63 131
-3 5 6 2 21 -7 30 -20 92 -24 103 -6 4 6 3 8 -2 5 -6 -3 -15 8 -21 24 -10 26
-10 29 3 19 8 -7 14 -9 14 -4 0 5 4 3 8 -4 7 -9 14 -8 33 8 l24 21 7 -29 c4
-16 14 -35 22 -41z m-22 -188 c25 -22 46 -34 166 -93 146 -72 212 -145 212
-235 0 -43 -7 -47 -36 -20 -28 26 -66 36 -86 23 -10 -7 -10 -8 2 -7 18 2 51
-10 65 -25 21 -21 34 -72 34 -131 0 -127 12 -191 63 -338 22 -65 39 -119 37
-122 -2 -2 -33 16 -68 39 -81 55 -95 80 -106 186 -7 75 -11 94 -24 118 -8 15
-8 22 -1 22 6 0 22 11 35 24 24 24 25 55 2 84 -8 10 -14 9 -29 -5 -29 -26 -53
-76 -39 -81 6 -2 8 -8 5 -14 -4 -5 -13 -3 -24 7 -16 14 -96 28 -112 19 -4 -3
-1 -21 6 -42 24 -70 123 -108 136 -52 9 39 17 6 19 -80 2 -105 23 -161 75
-207 24 -21 66 -47 95 -58 44 -17 52 -24 64 -60 28 -85 6 -184 -51 -230 -33
-26 -95 -64 -104 -65 -5 0 -8 7 -8 15 0 9 -7 27 -16 41 -14 20 -15 30 -5 50 6
14 11 47 11 75 0 28 4 48 9 44 5 -3 21 0 34 6 26 12 42 57 26 73 -13 14 -39
16 -39 3 0 -5 -3 -8 -6 -4 -4 3 -14 -3 -23 -14 -12 -15 -17 -40 -16 -90 0 -38
-3 -69 -8 -69 -4 0 -6 -4 -2 -9 14 -24 -19 -20 -53 6 -20 16 -60 43 -87 61
-28 17 -60 40 -71 51 l-21 19 20 59 c11 32 22 92 24 133 4 64 1 81 -19 119
-13 25 -34 51 -48 59 -22 12 -23 12 -8 0 10 -8 15 -18 11 -21 -3 -4 -2 -7 4
-7 26 0 42 -89 29 -158 -10 -54 -41 -135 -52 -139 -19 -6 -45 69 -43 125 2 44
5 52 19 47 37 -12 86 69 57 93 -16 14 -77 -20 -77 -42 0 -9 -12 -2 -32 17
l-32 32 -9 -32 c-12 -40 7 -91 36 -102 17 -6 21 -18 22 -57 1 -27 11 -70 23
-96 23 -50 27 -68 14 -68 -9 0 -32 -80 -32 -110 0 -25 1 -25 -62 4 -29 13 -77
32 -107 41 -65 21 -87 41 -101 95 -9 34 -8 147 2 154 2 2 31 22 66 45 34 23
75 61 90 83 25 39 27 49 29 162 3 189 5 206 26 206 10 0 32 14 49 31 28 28 30
34 25 81 -4 28 -9 53 -11 56 -6 5 -52 -23 -73 -44 -7 -7 -14 -23 -16 -36 -4
-25 -6 -26 -42 -2 -14 9 -27 15 -28 13 -20 -37 -24 -50 -21 -79 4 -36 38 -80
62 -80 10 0 12 -5 6 -17 -4 -10 -8 -62 -10 -116 -3 -109 -14 -132 -94 -204
-31 -29 -35 -30 -38 -13 -2 11 6 53 18 95 22 78 25 90 39 160 15 77 4 181 -28
263 -10 26 -19 61 -19 79 -1 32 0 32 44 31 50 -1 106 28 83 43 -10 6 -7 9 11
9 14 0 20 4 15 8 -6 4 -10 14 -10 22 1 19 -16 60 -25 60 -10 0 -36 -32 -43
-53 -8 -21 15 -61 28 -49 5 4 5 1 1 -6 -9 -15 -86 -13 -86 2 0 12 25 50 55 85
11 12 50 41 88 63 37 22 70 44 73 49 8 13 15 11 36 -8z m1176 -1075 c8 -10 5
-13 -13 -13 -14 0 -21 5 -18 13 3 6 9 12 13 12 4 0 12 -6 18 -12z m-1109 -72
c7 -8 50 -40 96 -71 52 -35 82 -61 79 -69 -3 -8 -26 -28 -52 -47 -26 -18 -53
-41 -60 -51 -18 -24 -36 -23 -50 5 -7 12 -21 34 -33 48 -35 44 -40 113 -14
187 6 16 20 15 34 -2z m771 -120 c0 -3 -4 -8 -10 -11 -5 -3 -10 -1 -10 4 0 6
5 11 10 11 6 0 10 -2 10 -4z m-558 -115 c-3 -7 -23 -32 -45 -55 -21 -22 -46
-52 -55 -65 -14 -21 -17 -22 -28 -6 -21 28 3 82 65 147 l45 48 12 -28 c6 -15
9 -33 6 -41z m-492 -36 c14 -2 26 -4 28 -6 3 -2 11 -4 61 -13 26 -5 52 -18 63
-30 16 -20 58 -100 63 -121 1 -5 5 -17 8 -25 7 -20 15 -70 11 -70 -2 0 -15 10
-29 22 -17 15 -23 29 -20 46 8 43 -35 102 -61 84 -15 -11 -9 -67 9 -95 16 -25
16 -26 -2 -24 -11 1 -18 4 -16 8 6 8 -41 29 -64 29 -26 0 -71 -38 -71 -61 0
-18 14 -23 73 -22 11 0 17 -8 17 -24 0 -20 5 -23 34 -23 25 0 40 7 55 26 23
29 27 50 11 57 -6 3 -5 4 2 3 7 -1 25 -26 39 -55 22 -43 26 -63 23 -113 -2
-33 -5 -63 -8 -65 -3 -3 -15 2 -28 11 -12 9 -31 16 -41 16 -10 0 -37 19 -60
43 -23 23 -64 57 -90 74 -41 28 -87 84 -87 105 0 3 14 9 30 13 33 7 60 47 60
89 0 27 -8 28 -69 4 -25 -10 -35 -10 -38 -1 -2 6 -13 21 -23 33 -16 19 -22 21
-35 10 -8 -7 -15 -19 -15 -26 0 -26 -17 -14 -27 20 -10 32 -9 34 27 50 20 9
42 16 48 16 7 0 12 4 12 9 0 12 28 19 60 13 14 -2 36 -5 50 -7z m2026 -70
c-11 -8 -23 -15 -26 -15 -4 0 -12 -12 -19 -27 -11 -24 -10 -29 11 -46 13 -10
17 -16 11 -12 -7 3 -19 3 -25 -2 -7 -4 -19 -8 -27 -10 -8 -1 -17 -7 -22 -14
-4 -8 -14 2 -27 29 l-20 41 72 35 c74 37 105 46 72 21z m-1361 -70 c-2 -26 3
-40 19 -50 25 -18 56 -20 56 -3 0 6 3 9 6 5 15 -15 -13 -50 -72 -92 l-66 -46
7 38 c3 21 6 45 6 53 1 27 31 130 39 130 3 0 6 -16 5 -35z m781 -42 c10 -27
21 -67 24 -91 6 -38 4 -45 -19 -61 -14 -10 -44 -24 -66 -31 -22 -7 -47 -15
-55 -18 -26 -9 -102 -21 -170 -27 -19 -2 -47 -6 -62 -10 -37 -7 -35 4 8 46 20
18 47 57 60 84 13 28 24 47 24 44 0 -10 102 9 140 26 19 9 46 32 60 50 14 19
28 35 31 35 4 0 14 -21 25 -47z m375 4 c-10 -9 -11 -8 -5 6 3 10 9 15 12 12 3
-3 0 -11 -7 -18z m-1964 -7 c6 -8 17 -15 23 -15 7 0 18 -17 25 -37 7 -21 11
-38 8 -38 -8 0 41 -64 62 -82 29 -24 12 -32 -40 -19 -25 6 -50 9 -55 6 -10 -6
-36 77 -44 143 -3 24 -8 48 -12 53 -9 15 20 6 33 -11z m1947 -22 c38 -17 77
-80 56 -93 -4 -2 -10 8 -13 24 -4 20 -14 31 -34 36 -62 17 -64 17 -57 -13 9
-34 43 -65 66 -59 28 8 32 -12 8 -38 -23 -25 -85 -58 -107 -58 -7 0 -13 -4
-13 -9 0 -5 -4 -7 -10 -3 -5 3 -17 1 -27 -4 -10 -5 -38 -15 -63 -22 -25 -7
-47 -13 -50 -14 -33 -10 -62 -29 -82 -55 l-24 -31 -58 22 c-31 12 -53 25 -49
29 4 4 37 17 73 30 87 31 180 91 235 152 25 28 45 54 45 59 0 7 68 59 77 59 1
0 13 -5 27 -12z m-1053 -148 c-10 -35 -51 -85 -103 -126 -13 -10 -35 -34 -48
-52 -48 -66 -113 -76 -118 -19 -1 19 19 46 86 113 48 49 110 107 137 128 49
37 50 37 53 15 2 -13 -1 -39 -7 -59z m-1028 -125 c59 -3 117 -9 129 -14 18 -6
13 -10 -31 -29 -34 -14 -59 -18 -72 -13 -13 4 -68 -2 -136 -15 -79 -15 -123
-20 -139 -13 -13 4 -24 6 -24 3 0 -4 -7 -1 -15 6 -13 11 -8 17 32 42 62 39 82
47 118 42 17 -1 79 -6 138 -9z m364 -106 c29 -19 53 -37 53 -40 0 -4 -18 -3
-41 1 -45 8 -179 5 -220 -5 -21 -5 -27 -2 -39 22 -8 15 -14 32 -15 38 0 15 45
23 130 21 73 -2 85 -6 132 -37z m821 -32 c18 -14 -92 -119 -122 -116 -11 0
-23 0 -26 -1 -3 -1 -25 -4 -50 -6 -25 -2 -50 -6 -56 -8 -6 -2 -16 -1 -22 3
-13 8 87 78 172 120 58 28 76 29 104 8z m-313 -1511 c21 -9 40 -26 46 -43 7
-15 18 -42 25 -60 17 -38 17 -43 2 -43 -22 0 -74 53 -101 104 -15 27 -27 50
-27 52 0 8 22 4 55 -10z m319 -12 c11 -28 -25 -37 -82 -20 -9 3 -28 7 -42 10
-14 2 -36 9 -50 15 -20 8 -4 10 72 9 70 0 98 -4 102 -14z m84 -7 c8 -6 12 -6
12 2 0 8 6 9 18 3 9 -5 25 -8 34 -7 10 2 15 -2 12 -10 -3 -7 -13 -12 -22 -10
-9 1 -26 -1 -37 -5 -31 -11 -49 -2 -33 18 10 12 7 11 -15 -3 -31 -20 -42 -16
-33 13 7 21 37 20 64 -1z m-844 5 c3 -5 -1 -9 -9 -9 -8 0 -12 4 -9 9 3 4 7 8
9 8 2 0 6 -4 9 -8z m-129 -27 c-16 -13 -73 -33 -110 -39 -5 -1 -14 -4 -20 -7
-12 -7 -36 -6 -33 1 1 3 -4 15 -10 27 -13 24 -10 25 128 31 60 2 63 1 45 -13z
m217 -12 c-7 -38 -35 -65 -71 -68 -17 -1 -31 1 -31 5 0 10 90 90 100 90 4 0 5
-12 2 -27z m542 13 c63 -14 84 -18 101 -20 28 -4 26 -40 -2 -44 -13 -2 -23 -7
-23 -12 0 -18 -45 5 -89 47 -36 35 -41 44 -22 38 13 -4 29 -8 35 -9z m-944
-53 c0 -7 -4 -13 -10 -13 -18 0 -142 -61 -192 -94 -31 -21 -59 -33 -73 -30
-12 2 -37 6 -56 8 -33 3 -35 7 -21 32 13 21 104 84 113 78 6 -3 18 1 27 9 16
15 77 36 152 55 30 8 37 6 47 -12 7 -12 12 -27 13 -33z m1308 34 c11 -10 23
-17 28 -16 16 2 54 -13 54 -22 0 -5 6 -9 13 -9 14 0 45 -32 72 -73 15 -24 16
-27 1 -21 -9 3 -22 2 -29 -3 -18 -15 -49 -24 -42 -13 3 5 -3 14 -14 19 -11 6
-25 17 -33 23 -7 7 -30 22 -50 33 -21 11 -38 23 -38 26 0 4 -13 12 -30 18 -16
5 -30 6 -30 2 0 -5 -27 -8 -59 -7 -47 1 -61 5 -64 18 -3 11 3 18 19 21 13 2
24 0 24 -6 0 -6 3 -7 6 -4 4 3 15 2 25 -4 15 -7 17 -6 13 6 -5 11 1 15 22 16
16 0 38 4 49 8 27 11 40 8 63 -12z m-419 -28 c45 -43 45 -51 6 -56 -25 -4 -40
14 -55 68 -11 39 -2 36 49 -12z m-629 14 c-1 -18 -27 -40 -55 -47 -65 -17 -68
-17 -54 2 7 9 14 19 15 20 3 5 76 31 87 32 4 0 7 -3 7 -7z m486 -157 c4 -25 3
-27 -11 -16 -8 7 -15 17 -15 22 0 6 -9 22 -19 37 -17 23 -26 66 -21 96 2 15
60 -106 66 -139z m-646 114 c0 -5 -6 -10 -14 -10 -7 0 -16 -9 -19 -20 -7 -26
-33 -26 -40 1 -3 12 -3 18 0 15 3 -3 15 1 27 9 24 17 46 19 46 5z m1140 -5
c-10 -13 -9 -15 8 -15 20 0 48 -13 119 -57 50 -30 30 -44 -73 -48 -68 -2 -93
0 -106 12 -10 9 -18 11 -22 4 -4 -6 -13 -8 -22 -4 -12 4 -12 8 -2 21 10 12 10
14 1 8 -8 -4 -13 -2 -13 4 0 7 -9 23 -20 37 -32 41 -26 46 50 41 39 -3 73 -1
76 3 3 5 8 9 11 9 3 0 0 -7 -7 -15z m-164 -20 c8 -7 14 -20 14 -29 0 -8 5 -18
10 -21 6 -3 10 -13 10 -20 0 -17 -64 17 -93 49 -27 30 30 50 59 21z m-1091
-15 c-4 -11 -2 -20 4 -20 6 0 11 6 11 13 0 8 3 7 9 -3 14 -21 2 -32 -26 -25
-14 3 -22 2 -19 -3 6 -10 -51 -30 -107 -36 -20 -2 -39 0 -42 4 -5 7 135 80
173 89 2 1 0 -8 -3 -19z m213 -17 c-31 -55 -53 -73 -87 -73 -35 0 -43 16 -25
50 16 33 63 57 111 59 l22 1 -21 -37z m132 31 c0 -8 -32 -33 -42 -34 -5 0 -8
9 -8 20 0 15 7 20 25 20 14 0 25 -3 25 -6z m648 -37 c20 -21 42 -87 29 -87
-16 0 -126 72 -131 85 -3 9 -2 14 2 12 4 -3 16 -1 27 4 34 13 51 10 73 -14z
m-418 1 c3 -4 5 -37 5 -74 0 -63 -2 -67 -23 -69 -13 -1 -25 2 -29 8 -9 14 -5
84 6 105 7 12 7 22 0 29 -6 6 -2 9 13 9 13 -1 25 -4 28 -8z m-157 -5 c2 -5 1
-21 -2 -36 -5 -25 -8 -27 -25 -14 -16 12 -17 16 -5 35 14 23 25 28 32 15z
m233 -151 c-4 -62 -12 -73 -43 -61 -19 7 -21 12 -14 31 11 30 11 27 12 111 l0
72 24 -50 c18 -38 23 -63 21 -103z m168 117 c-9 -16 -20 -10 -21 12 -2 17 1
18 12 9 8 -7 12 -16 9 -21z m-368 -30 c-14 -33 -14 -33 -13 -6 1 15 5 27 9 27
4 0 8 8 9 18 0 9 3 12 5 6 3 -7 -2 -27 -10 -45z m-429 17 c-4 -10 -1 -13 9 -9
9 3 14 -1 14 -12 0 -12 -5 -15 -19 -10 -11 3 -22 1 -26 -4 -4 -7 1 -8 12 -4
16 6 16 5 5 -10 -8 -9 -19 -15 -24 -14 -6 1 -12 -6 -13 -17 -5 -28 -19 -38
-56 -39 -19 -1 -37 -6 -40 -10 -3 -4 -19 -10 -35 -13 -47 -9 -42 -16 6 -9 25
4 52 8 60 9 9 1 21 6 28 10 9 6 9 -3 -3 -30 -19 -46 -15 -42 -50 -48 -66 -12
-79 -16 -84 -23 -8 -10 -46 -16 -96 -16 -80 1 -78 1 -70 31 8 33 64 122 76
122 5 0 9 5 9 10 0 15 39 50 45 41 3 -5 2 -17 -1 -28 -5 -17 -5 -17 6 0 6 9 8
21 5 27 -3 5 4 12 17 15 42 10 109 12 114 3 3 -4 15 -1 27 7 12 8 31 15 44 15
12 0 25 5 28 10 9 15 18 12 12 -4z m362 -25 c16 -29 -13 -54 -64 -56 -55 -2
-59 13 -10 46 19 13 35 27 35 31 0 13 30 -4 39 -21z m351 -13 c16 -30 17 -38
6 -29 -9 8 -16 10 -16 5 0 -5 -6 0 -14 11 -14 21 -18 55 -5 55 4 0 17 -19 29
-42z m120 22 c0 -4 -8 -14 -18 -23 -14 -13 -21 -14 -30 -5 -9 9 -8 16 4 29 15
16 44 16 44 -1z m694 -32 c-7 -11 -67 1 -76 15 -5 8 -8 5 -8 -9 0 -18 7 -21
47 -23 54 -2 52 0 59 -36 5 -27 5 -27 -43 -22 -76 9 -112 18 -124 33 -16 19 5
44 31 37 12 -3 20 0 20 6 0 7 -4 10 -9 6 -5 -3 -12 -1 -16 5 -3 5 -1 10 4 10
18 0 20 0 53 15 31 13 34 12 50 -8 9 -12 14 -25 12 -29z m-567 -29 c49 -46
131 -149 118 -149 -3 0 1 -10 9 -22 9 -12 16 -35 16 -49 0 -15 5 -29 12 -31 7
-3 8 -7 2 -11 -13 -8 -21 -1 -72 57 -27 31 -39 52 -32 56 8 5 6 13 -6 25 -17
17 -124 174 -124 182 0 9 31 -15 77 -58z m-739 31 c-14 -22 -38 -35 -38 -20 0
7 38 40 47 40 2 0 -2 -9 -9 -20z m236 -17 c-3 -35 -20 -57 -35 -47 -7 4 3 53
16 74 13 21 23 9 19 -27z m-324 13 c0 -23 -41 -74 -92 -114 -15 -12 -15 -10
-3 32 8 26 12 46 9 46 -2 0 2 10 10 23 16 23 76 34 76 13z m1227 -17 c-10 -26
-13 -27 -36 -15 -14 7 -38 16 -53 20 -47 11 -31 21 36 22 l63 1 -10 -28z
m-1333 8 c-6 -16 -44 -40 -44 -28 0 6 10 17 22 25 27 19 29 19 22 3z m840 -29
c-7 -67 -7 -68 -10 -68 -2 0 -15 17 -28 37 -24 34 -24 38 -9 55 9 10 24 18 34
18 14 0 16 -7 13 -42z m-492 0 c-7 -7 -12 -8 -12 -2 0 14 12 26 19 19 2 -3 -1
-11 -7 -17z m-347 -17 c-3 -11 -8 -30 -10 -42 -7 -36 -33 -54 -72 -50 -16 1
-12 42 7 62 12 14 67 47 78 49 2 0 1 -9 -3 -19z m289 6 c3 4 6 2 6 -4 0 -31
-72 -60 -78 -31 -5 27 19 47 44 37 12 -4 25 -5 28 -2z m636 -80 c42 -82 30
-114 -24 -61 -24 25 -25 28 -9 40 15 12 15 13 2 8 -20 -6 -31 16 -35 69 -2 37
-2 38 16 22 10 -9 33 -44 50 -78z m130 66 c14 -6 41 -17 60 -24 34 -13 50 -26
50 -42 0 -15 -99 24 -132 53 -18 14 -25 35 -10 28 4 -2 18 -9 32 -15z m-866
-50 c-2 -71 -2 -71 -15 -53 -8 12 -9 11 -4 -6 3 -14 0 -24 -9 -27 -15 -6 -25
31 -18 66 4 17 4 17 16 1 11 -15 12 -13 8 15 -3 24 10 61 22 61 1 0 1 -26 0
-57z m334 38 c3 -8 -1 -12 -9 -9 -7 2 -15 10 -17 17 -3 8 1 12 9 9 7 -2 15
-10 17 -17z m180 11 c10 -7 10 -16 0 -47 -19 -58 -36 -55 -36 4 -1 51 7 61 36
43z m-358 -11 c0 -12 -50 -44 -57 -37 -9 8 27 46 44 46 7 0 13 -4 13 -9z m138
-30 c20 -39 25 -81 10 -81 -4 0 -8 -7 -8 -15 0 -8 -7 -15 -16 -15 -9 0 -14 -6
-11 -13 3 -7 -1 -24 -8 -38 -13 -24 -14 -24 -13 11 1 19 6 38 12 43 8 5 8 9 0
15 -17 11 -7 132 11 132 1 0 12 -18 23 -39z m-81 7 c-3 -8 -6 -5 -6 6 -1 11 2
17 5 13 3 -3 4 -12 1 -19z m-21 -10 c0 -12 -7 -23 -15 -26 -10 -3 -12 0 -8 12
4 10 7 22 7 27 0 5 4 9 9 9 4 0 8 -10 7 -22z m741 -32 c7 -1 16 -5 19 -9 4 -4
15 -7 24 -7 17 0 83 -85 83 -107 0 -7 4 -10 9 -7 4 3 8 0 8 -5 0 -6 3 -10 8
-9 4 2 28 -12 53 -29 43 -29 47 -37 51 -78 3 -43 -9 -62 -34 -57 -5 1 -8 -2
-8 -6 0 -8 -83 -7 -120 1 -8 2 -31 7 -50 11 -37 9 -103 41 -132 65 -14 11 -15
17 -7 28 9 9 9 13 0 13 -6 0 -11 11 -11 25 0 29 -2 28 39 14 32 -11 34 -18 33
-84 -1 -18 2 -25 7 -16 4 7 7 23 5 37 -3 28 12 31 38 7 10 -9 18 -12 18 -7 0
5 -9 15 -20 22 -11 7 -20 19 -20 27 0 8 -5 15 -12 15 -6 0 -8 3 -5 7 4 3 2 12
-4 19 -7 8 -7 14 0 19 7 4 5 15 -5 31 -9 13 -13 24 -9 24 4 0 -5 20 -20 45
l-26 46 38 -17 c21 -8 43 -17 50 -18z m-1017 14 c0 -5 -5 -10 -11 -10 -5 0 -7
5 -4 10 3 6 8 10 11 10 2 0 4 -4 4 -10z m125 0 c-3 -5 -12 -10 -18 -10 -7 0
-6 4 3 10 19 12 23 12 15 0z m545 -12 c0 -6 7 -19 16 -29 12 -13 13 -22 6 -35
-9 -16 -12 -13 -26 20 -18 44 -21 70 -6 61 6 -3 10 -11 10 -17z m435 12 c-5
-9 21 -14 63 -13 6 1 12 -3 12 -8 0 -16 -57 -14 -77 3 -16 13 -17 28 -2 28 5
0 7 -4 4 -10z m-935 -7 c-1 -13 -38 -53 -49 -53 -17 0 -13 12 12 37 23 22 37
29 37 16z m547 -15 c-3 -8 -6 -5 -6 6 -1 11 2 17 5 13 3 -3 4 -12 1 -19z
m-517 -38 c-11 -22 -34 -47 -50 -55 -29 -15 -30 -15 -30 7 0 24 77 101 92 92
4 -3 -1 -23 -12 -44z m270 46 c0 -9 -30 -14 -35 -6 -4 6 3 10 14 10 12 0 21
-2 21 -4z m-520 -19 c0 -17 -37 -47 -62 -52 -12 -3 -28 -11 -38 -20 -9 -8 -19
-13 -21 -11 -2 3 -9 -6 -16 -20 -10 -21 -9 -22 6 -14 9 5 28 20 44 35 15 14
27 23 27 21 0 -3 11 -1 25 4 39 15 37 -4 -3 -43 -30 -29 -46 -36 -89 -40 -29
-3 -54 -3 -56 0 -5 4 77 91 107 114 17 12 19 12 12 -1 -5 -8 4 -3 20 13 31 30
44 34 44 14z m558 -17 c-4 -33 -18 -40 -32 -17 -7 10 -5 21 3 31 21 25 32 19
29 -14z m252 -2 c27 -39 51 -59 62 -52 6 4 9 1 6 -7 -3 -8 -1 -22 3 -31 5 -10
5 -19 0 -22 -12 -8 -109 106 -104 122 7 18 17 15 33 -10z m741 -9 c5 -11 8
-19 5 -19 -3 0 1 -12 9 -27 8 -15 13 -29 11 -30 -9 -9 -46 -11 -46 -2 0 5 -4
9 -9 9 -5 0 -34 15 -66 34 l-57 35 39 6 c21 4 43 8 48 9 28 8 57 1 66 -15z
m-1801 1 c-8 -5 -19 -10 -25 -10 -5 0 -3 5 5 10 8 5 20 10 25 10 6 0 3 -5 -5
-10z m607 -67 c-2 -69 -13 -83 -33 -44 -8 16 -8 32 4 66 8 25 18 45 23 45 5 0
8 -30 6 -67z m1091 9 c39 -20 41 -35 6 -51 -25 -11 -29 -9 -75 40 -74 80 -67
81 69 11z m-1408 17 c0 -11 -4 -18 -10 -14 -5 3 -7 12 -3 20 7 21 13 19 13 -6z
m256 -27 c-9 -23 -11 -42 -6 -42 6 0 10 -5 10 -11 0 -5 -6 -7 -12 -3 -9 5 -9
2 1 -9 11 -14 11 -21 -3 -42 -9 -13 -25 -29 -36 -35 -19 -10 -21 -9 -19 6 0 4
-5 10 -12 15 -9 5 -10 11 -2 21 6 7 12 18 14 23 4 20 22 55 28 55 4 0 15 16
25 35 25 46 30 39 12 -13z m237 9 c2 -10 -3 -28 -12 -40 l-16 -21 -11 28 c-14
37 0 80 20 63 8 -6 16 -20 19 -30z m180 27 c6 -17 -10 -58 -23 -58 -10 0 -12
7 -12 35 0 29 2 35 16 35 8 0 16 -6 19 -12z m-891 -6 c-13 -4 -23 -10 -23 -14
2 -20 -1 -24 -23 -34 l-24 -11 16 33 c13 28 21 34 46 33 27 -1 28 -2 8 -7z
m322 -9 c4 -9 1 -20 -5 -24 -7 -4 -8 -12 -3 -20 6 -12 5 -11 -9 0 -15 12 -17
12 -12 -1 5 -12 -30 -38 -50 -38 -16 0 0 46 24 71 34 33 46 36 55 12z m781 7
c-3 -5 -12 -10 -18 -10 -7 0 -6 4 3 10 19 12 23 12 15 0z m-1301 -11 c20 0 16
-9 -6 -13 -7 -1 -28 -12 -46 -24 -18 -13 -32 -21 -32 -17 0 3 -9 1 -20 -5 -22
-12 -23 -8 -14 38 6 31 7 31 53 26 25 -3 54 -5 65 -5z m842 3 c-3 -4 -1 -24 3
-43 7 -29 5 -36 -8 -36 -19 0 -43 22 -34 31 3 3 12 1 20 -5 15 -13 18 2 3 17
-12 12 -3 44 12 44 5 0 7 -4 4 -8z m363 -45 c20 -22 41 -46 48 -52 7 -7 9 -16
5 -20 -4 -5 -2 -5 4 -2 16 9 64 -52 64 -80 0 -13 -6 -23 -13 -23 -18 0 -49 35
-40 44 4 4 0 4 -8 1 -10 -4 -20 3 -28 21 -6 15 -31 50 -55 78 -37 45 -43 57
-37 82 2 9 22 -7 60 -49z m-217 11 c-9 -9 -12 -7 -12 12 0 19 3 21 12 12 9 -9
9 -15 0 -24z m378 -4 c0 -1 -9 0 -20 3 -11 3 -20 12 -20 19 0 11 5 10 20 -3
11 -10 20 -18 20 -19z m-990 12 c0 -3 -4 -8 -10 -11 -5 -3 -10 -1 -10 4 0 6 5
11 10 11 6 0 10 -2 10 -4z m743 -3 c3 -5 1 -19 -4 -32 -8 -19 -12 -21 -24 -11
-11 9 -12 16 -2 31 12 20 23 24 30 12z m185 -5 c7 -7 12 -23 12 -36 0 -19 -5
-23 -22 -20 -17 2 -23 10 -24 28 -1 41 11 51 34 28z m-955 -43 c-5 -25 -34
-41 -54 -30 -13 8 -2 21 33 40 12 7 24 13 24 14 1 1 -1 -10 -3 -24z m1602 -26
c51 -47 54 -53 40 -69 -8 -9 -12 -20 -8 -23 13 -14 -23 -5 -48 11 -110 72
-119 82 -89 112 29 29 43 25 105 -31z m-1365 31 c0 -5 -5 -10 -11 -10 -5 0 -7
5 -4 10 3 6 8 10 11 10 2 0 4 -4 4 -10z m-316 -22 c-3 -5 0 -15 6 -23 7 -8 9
-15 5 -15 -8 0 -44 42 -45 52 0 3 9 4 20 1 11 -3 17 -9 14 -15z m247 2 c-25
-21 -41 -26 -41 -12 0 9 38 30 55 31 6 0 -1 -9 -14 -19z m189 -6 c0 -8 -4 -12
-10 -9 -5 3 -10 13 -10 21 0 8 5 12 10 9 6 -3 10 -13 10 -21z m-525 6 c-5 -9
32 -16 58 -11 5 1 7 -6 5 -16 -2 -12 -16 -20 -41 -24 -31 -5 -39 -2 -51 16
-11 17 -12 25 -3 34 14 14 41 15 32 1z m616 -2 c0 -10 2 -10 6 -1 3 9 10 10
24 3 26 -15 24 -30 -5 -30 -13 0 -27 -7 -30 -16 -3 -8 -10 -12 -16 -9 -11 7
-14 48 -3 58 10 11 23 8 24 -5z m359 2 c0 -5 6 -10 13 -10 6 0 22 -16 35 -35
12 -19 18 -35 14 -35 -14 0 -53 41 -47 50 3 4 -3 6 -14 3 -12 -3 -20 2 -24 16
-3 14 0 21 9 21 8 0 14 -4 14 -10z m-205 -33 c2 -32 -15 -35 -34 -6 -11 18
-11 23 1 30 20 13 32 5 33 -24z m118 -20 c-3 -5 -14 -1 -24 9 -23 21 -26 12
-3 -10 11 -12 12 -16 2 -16 -7 0 -18 11 -25 25 -9 20 -8 25 3 25 8 0 14 6 14
13 0 6 9 1 19 -13 11 -13 17 -28 14 -33z m-520 29 c6 -15 -1 -26 -15 -26 -4 0
-8 9 -8 20 0 23 15 27 23 6z m777 10 c0 -11 -19 -15 -25 -6 -3 5 1 10 9 10 9
0 16 -2 16 -4z m-608 -28 c-6 -6 -15 -8 -19 -4 -4 4 -1 11 7 16 19 12 27 3 12
-12z m-295 -10 c-3 -8 -6 -5 -6 6 -1 11 2 17 5 13 3 -3 4 -12 1 -19z m43 18
c0 -3 -4 -8 -10 -11 -5 -3 -10 -1 -10 4 0 6 5 11 10 11 6 0 10 -2 10 -4z
m-326 -15 c3 -5 -1 -11 -9 -14 -9 -4 -12 -1 -8 9 6 16 10 17 17 5z m610 -25
c-4 -10 -13 -15 -24 -11 -10 3 -22 0 -26 -6 -5 -9 -2 -10 11 -5 14 5 16 4 7
-7 -7 -8 -10 -16 -7 -19 3 -2 -6 -11 -20 -18 -22 -12 -28 -12 -41 2 -14 14
-12 17 18 36 19 12 43 31 53 42 20 22 40 14 29 -14z m83 7 c-10 -22 -13 -24
-15 -9 -2 10 2 22 10 27 19 12 19 12 5 -18z m-444 10 c11 -11 -13 -32 -30 -26
-11 4 -14 2 -11 -8 6 -15 11 -15 41 -4 28 11 20 -19 -13 -48 -16 -15 -34 -27
-40 -27 -10 0 -5 72 9 118 2 5 38 2 44 -5z m108 -46 c-23 -23 -30 -21 -36 13
-2 12 -2 20 2 17 3 -4 15 0 27 9 19 13 21 13 24 -2 2 -9 -5 -26 -17 -37z m688
-17 c33 -54 36 -65 21 -75 -10 -6 -73 86 -85 124 -12 40 29 8 64 -49z m-606
45 c4 -8 2 -17 -4 -20 -5 -4 -7 -11 -3 -16 3 -5 10 -7 15 -3 6 3 26 -11 44
-32 28 -31 32 -41 23 -57 -7 -14 -6 -22 3 -31 9 -8 11 -7 6 7 -7 18 17 36 30
23 9 -9 -28 -47 -39 -40 -5 3 -12 -3 -15 -15 -7 -27 -7 -27 -59 8 -24 17 -46
26 -49 20 -4 -5 -2 -9 4 -9 6 0 17 -13 26 -29 14 -28 14 -30 -8 -33 -15 -2
-27 5 -38 22 -15 23 -15 27 3 58 18 28 18 32 3 32 -9 0 -23 6 -31 14 -12 13
-9 19 20 49 19 20 31 39 28 43 -4 4 -1 4 6 0 7 -4 12 -1 12 8 0 20 16 21 23 1z
m507 -4 c0 -11 -4 -23 -10 -26 -5 -3 -10 -16 -11 -28 0 -22 0 -22 -12 1 -8 18
-8 25 2 31 7 5 12 11 12 15 -3 18 0 26 9 26 6 0 10 -9 10 -19z m-645 -1 c3 -5
1 -10 -4 -10 -6 0 -11 5 -11 10 0 6 2 10 4 10 3 0 8 -4 11 -10z m235 1 c0 -12
-46 -41 -54 -34 -8 8 25 42 42 42 6 1 12 -3 12 -8z m220 -1 c0 -4 -7 -13 -15
-20 -12 -10 -15 -9 -15 7 0 11 7 20 15 20 8 0 15 -4 15 -7z m105 -21 c4 -21 3
-22 -11 -7 -9 9 -13 21 -9 28 9 14 14 9 20 -21z m-825 16 c0 -13 -57 -33 -71
-24 -12 8 -12 10 1 19 15 10 70 14 70 5z m624 -11 c5 -14 4 -15 -9 -4 -17 14
-19 20 -6 20 5 0 12 -7 15 -16z m584 0 c17 -12 20 -19 12 -33 -9 -19 -60 -26
-60 -10 0 5 8 9 17 9 13 0 14 3 5 12 -13 13 -16 38 -4 38 4 0 18 -7 30 -16z
m647 -5 c-4 -5 -2 -9 3 -9 19 0 20 -26 2 -27 -28 -2 -45 23 -28 40 14 16 32
12 23 -4z m-1272 -51 c-14 -15 -31 -25 -36 -21 -6 3 -7 1 -3 -5 10 -17 -10
-24 -23 -8 -8 10 -9 16 -1 21 6 3 8 11 5 16 -6 9 6 12 40 10 16 -2 17 0 6 8
-12 8 -12 12 -2 25 12 15 15 15 27 -1 11 -16 9 -22 -13 -45z m354 46 c-3 -3 9
-28 28 -54 31 -44 32 -47 12 -42 -28 7 -72 40 -73 55 0 12 25 47 34 47 3 0 3
-3 -1 -6z m-653 -20 c5 -14 4 -15 -9 -4 -17 14 -19 20 -6 20 5 0 12 -7 15 -16z
m452 -9 c-3 -13 -16 -40 -28 -60 -15 -27 -23 -33 -29 -23 -12 19 0 81 19 96
27 21 45 15 38 -13z m68 -7 c-3 -4 1 -8 9 -8 15 0 32 -29 22 -38 -10 -10 -36
24 -41 54 -3 21 -2 25 5 14 5 -8 7 -18 5 -22z m266 2 c7 -13 6 -20 -2 -22 -10
-4 -38 32 -38 48 0 10 32 -11 40 -26z m198 21 c23 -13 71 -24 103 -25 17 0 25
-5 22 -12 -6 -16 17 -30 26 -15 9 15 104 42 113 33 4 -4 9 -17 11 -29 2 -12
11 -31 20 -41 23 -26 21 -39 -5 -36 -13 1 -23 3 -23 4 0 1 -20 3 -45 5 -87 7
-180 36 -180 55 0 5 -8 8 -17 8 -10 0 -31 4 -46 11 -24 9 -26 14 -17 31 12 23
14 23 38 11z m-611 -43 c-3 -8 -6 -5 -6 6 -1 11 2 17 5 13 3 -3 4 -12 1 -19z
m-19 -20 c10 -13 12 -18 12 -39 0 -5 4 -8 9 -5 16 10 29 -18 20 -43 -8 -20
-11 -22 -26 -10 -10 8 -26 23 -36 34 -10 11 -15 14 -12 7 6 -11 3 -12 -14 -3
-17 10 -19 15 -11 31 6 11 18 20 26 20 8 0 12 5 9 10 -9 14 11 12 23 -2z m155
-2 c3 -8 -4 -18 -17 -24 -22 -10 -23 -9 -12 14 12 27 21 30 29 10z m335 -19
c-7 -14 -13 -17 -16 -9 -6 19 6 44 18 37 7 -4 6 -14 -2 -28z m-808 -2 c9 -11
10 -19 3 -26 -6 -6 -13 -1 -21 16 -13 28 -2 34 18 10z m769 -1 c-10 -12 -10
-17 -1 -23 9 -5 10 -15 4 -31 l-8 -23 -22 28 c-23 28 -21 45 4 45 8 0 14 5 14
10 0 6 5 10 11 10 8 0 7 -5 -2 -16z m-259 -21 c0 -8 -7 -30 -16 -49 l-16 -34
-29 17 c-37 22 -36 35 1 67 31 26 60 25 60 -1z m171 7 c22 -13 25 -33 5 -49
-11 -9 -16 -5 -25 20 -16 45 -14 47 20 29z m-586 -48 c9 -6 16 -52 9 -52 -2 0
-10 14 -19 30 -15 29 -11 38 10 22z m351 -37 c9 -8 11 -15 5 -15 -5 0 -12 -8
-15 -18 -11 -32 -35 -22 -31 12 4 38 3 36 16 36 6 0 17 -7 25 -15z m-366 -21
c0 -17 -22 -14 -28 4 -2 7 3 12 12 12 9 0 16 -7 16 -16z m306 -40 c-3 -8 -10
-13 -16 -9 -6 3 -5 16 3 32 9 21 13 23 15 9 2 -9 1 -24 -2 -32z m42 -15 c-2
-6 -7 -10 -12 -9 -5 1 -14 -9 -20 -21 -16 -33 -36 -36 -36 -5 0 19 5 26 19 26
11 0 23 5 26 10 8 13 28 13 23 -1z"/>
<path d="M2362 4593 c-36 -18 -49 -51 -32 -82 7 -14 7 -21 0 -21 -15 0 -12
-16 6 -34 20 -21 53 -20 82 3 22 16 23 19 8 33 -9 9 -21 18 -28 20 -10 4 -10
10 -1 29 17 33 20 61 8 65 -5 2 -25 -4 -43 -13z"/>
<path d="M2621 4447 c-26 -26 -4 -98 35 -116 23 -10 53 -6 55 8 0 3 2 15 4 25
9 48 -64 113 -94 83z"/>
<path d="M2488 4354 c-36 -19 -35 -37 2 -64 17 -12 30 -19 30 -15 0 3 9 1 21
-6 17 -9 20 -17 14 -46 -8 -46 8 -85 46 -107 38 -23 59 -8 59 42 0 28 -8 42
-42 74 -23 21 -38 39 -35 39 4 1 12 2 18 3 6 0 18 11 26 22 13 20 11 24 -17
48 -36 30 -80 33 -122 10z"/>
<path d="M2325 4019 c3 -17 10 -40 16 -51 21 -40 107 -49 104 -11 -5 58 -26
78 -89 89 -36 5 -36 5 -31 -27z"/>
<path d="M2675 3742 c-5 -4 -12 -14 -14 -22 -17 -71 -18 -81 -4 -107 18 -35
22 -39 50 -47 29 -9 56 39 48 86 -6 36 -64 102 -80 90z"/>
<path d="M3330 1000 c0 -5 5 -10 11 -10 5 0 7 5 4 10 -3 6 -8 10 -11 10 -2 0
-4 -4 -4 -10z"/>
<path d="M1935 819 c-4 -6 -5 -12 -2 -15 2 -3 7 2 10 11 7 17 1 20 -8 4z"/>
<path d="M1896 795 c-11 -8 -15 -15 -9 -15 6 0 16 7 23 15 16 19 11 19 -14 0z"/>
<path d="M1830 761 c0 -7 -4 -10 -8 -7 -4 2 -14 0 -22 -5 -11 -7 -8 -8 10 -5
14 2 32 -2 40 -8 13 -10 13 -9 0 9 -8 11 -16 22 -17 24 -2 2 -3 -1 -3 -8z"/>
<path d="M1878 733 c7 -3 16 -2 19 1 4 3 -2 6 -13 5 -11 0 -14 -3 -6 -6z"/>
<path d="M1782 702 c-8 -6 -2 -9 18 -9 16 0 30 4 30 9 0 10 -31 10 -48 0z"/>
<path d="M3080 680 c0 -5 5 -10 10 -10 6 0 10 5 10 10 0 6 -4 10 -10 10 -5 0
-10 -4 -10 -10z"/>
<path d="M3221 524 c19 -14 33 -29 32 -33 -1 -4 9 -7 22 -7 13 0 21 4 19 8 -3
4 -10 8 -15 8 -6 0 -25 11 -43 25 -18 14 -37 25 -41 25 -5 0 7 -12 26 -26z"/>
<path d="M3370 459 c0 -5 5 -7 10 -4 6 3 10 8 10 11 0 2 -4 4 -10 4 -5 0 -10
-5 -10 -11z"/>
<path d="M3260 444 c0 -12 79 -59 86 -52 2 2 -13 13 -34 23 -20 11 -40 24 -44
30 -5 6 -8 6 -8 -1z"/>
<path d="M3370 375 c0 -8 2 -15 4 -15 2 0 6 7 10 15 3 8 1 15 -4 15 -6 0 -10
-7 -10 -15z"/>
<path d="M2385 440 c3 -5 13 -10 21 -10 8 0 12 5 9 10 -3 6 -13 10 -21 10 -8
0 -12 -4 -9 -10z"/>
<path d="M3030 419 c0 -5 5 -7 10 -4 6 3 10 8 10 11 0 2 -4 4 -10 4 -5 0 -10
-5 -10 -11z"/>
<path d="M2305 360 c-10 -11 -13 -20 -7 -20 5 0 8 -10 6 -22 -4 -21 -4 -21 5
-3 4 11 7 23 4 28 -2 4 3 7 11 7 17 0 22 15 7 24 -4 3 -16 -3 -26 -14z"/>
<path d="M2363 328 c-2 -16 1 -18 10 -9 7 7 8 14 1 21 -6 6 -10 2 -11 -12z"/>
<path d="M2390 299 c0 -5 5 -7 10 -4 6 3 10 8 10 11 0 2 -4 4 -10 4 -5 0 -10
-5 -10 -11z"/>
<path d="M2360 290 c-13 -8 -12 -10 3 -10 9 0 17 5 17 10 0 12 -1 12 -20 0z"/>
<path d="M3275 310 c-2 -4 9 -6 26 -6 16 0 29 3 29 8 0 9 -50 7 -55 -2z"/>
<path d="M3400 300 c8 -5 20 -10 25 -10 6 0 3 5 -5 10 -8 5 -19 10 -25 10 -5
0 -3 -5 5 -10z"/>
<path d="M2555 270 c-3 -6 1 -7 9 -4 11 4 16 0 16 -14 0 -12 5 -24 10 -27 13
-8 13 11 0 36 -12 21 -25 25 -35 9z"/>
<path d="M2869 4985 c-11 -25 -19 -51 -16 -58 2 -7 -21 -24 -53 -39 -61 -29
-85 -63 -78 -110 2 -19 8 -22 32 -20 50 5 101 72 91 121 -5 26 15 28 22 3 2
-10 13 -23 23 -30 16 -10 22 -7 39 17 11 15 22 39 25 53 5 32 -30 108 -51 108
-8 0 -23 -20 -34 -45z"/>
<path d="M3249 4888 c-17 -10 -33 -28 -36 -39 -3 -10 -9 -19 -14 -19 -18 0 -9
-49 11 -60 25 -14 80 -9 98 7 7 7 21 18 30 25 19 15 56 88 48 96 -15 14 -108
8 -137 -10z"/>
<path d="M3000 4880 c-8 -5 -17 -7 -21 -5 -10 7 -64 -48 -64 -65 0 -20 25 -39
52 -40 50 0 104 88 65 109 -10 5 -24 6 -32 1z"/>
<path d="M2920 4712 c-18 -50 -21 -87 -11 -116 14 -34 53 -73 72 -69 22 5 43
47 43 88 0 36 -42 108 -72 124 -16 8 -20 4 -32 -27z"/>
<path d="M3470 4683 c-25 -10 -67 -58 -62 -72 3 -9 0 -11 -9 -6 -8 4 2 -8 21
-28 59 -60 130 -56 197 13 l32 32 -27 22 c-50 41 -108 55 -152 39z"/>
<path d="M1654 4518 c-9 -14 23 -56 55 -72 16 -9 30 -14 32 -13 3 1 -6 -8 -18
-21 -25 -25 -31 -61 -10 -63 6 -1 25 -2 40 -3 43 -4 77 27 75 70 -1 19 -5 30
-9 23 -4 -7 -15 -9 -25 -5 -18 7 -18 8 -1 17 14 8 15 14 5 32 -6 12 -18 27
-26 33 -19 14 -110 15 -118 2z"/>
<path d="M3217 4489 c-41 -24 -64 -108 -40 -153 3 -6 -5 2 -18 17 -17 20 -37
30 -67 34 l-43 6 5 -34 c12 -93 38 -116 126 -110 20 1 22 3 10 11 -8 5 -11 12
-8 16 4 4 3 15 -3 25 -12 23 -3 25 18 4 19 -20 31 -16 57 18 25 34 24 92 -1
141 -15 29 -21 33 -36 25z"/>
<path d="M3390 4460 c-17 -22 -32 -47 -32 -57 -3 -31 11 -71 26 -76 14 -6 75
47 77 67 0 6 2 19 4 29 5 27 -15 77 -30 77 -7 0 -27 -18 -45 -40z"/>
<path d="M4154 4463 c-25 -38 -26 -95 -3 -132 27 -45 48 -50 74 -17 21 27 25
63 10 101 -11 27 -47 75 -56 75 -4 0 -15 -12 -25 -27z"/>
<path d="M3743 4433 c-5 -22 -6 -52 -1 -70 8 -32 59 -83 83 -83 26 0 40 35 36
94 -1 22 -75 96 -95 96 -8 0 -18 -17 -23 -37z"/>
<path d="M4313 4425 c-35 -25 -71 -119 -51 -131 5 -3 -4 -15 -21 -25 -38 -23
-40 -52 -6 -67 37 -17 58 -15 84 9 17 16 20 24 10 35 -6 8 -18 14 -26 14 -8 0
-11 5 -8 10 4 6 10 8 15 5 4 -2 22 0 39 6 35 12 78 76 83 124 3 29 2 30 -47
33 -33 2 -57 -3 -72 -13z"/>
<path d="M1337 4370 c-27 -22 -28 -23 -10 -42 40 -44 109 -65 148 -45 45 24
47 34 14 68 -42 43 -110 52 -152 19z"/>
<path d="M1254 4276 c-35 -40 -48 -87 -32 -122 9 -20 17 -24 36 -19 18 4 22 3
16 -7 -5 -7 -9 -22 -10 -34 -1 -18 4 -20 38 -18 40 2 60 18 78 62 6 13 8 28 4
33 -7 12 -51 12 -74 -1 -17 -9 -18 -7 -10 21 7 22 5 41 -5 65 -15 36 -24 41
-41 20z"/>
<path d="M3497 4167 c-15 -12 -27 -30 -27 -38 0 -29 -13 -29 -47 1 -40 36 -49
37 -57 8 -19 -71 0 -118 51 -130 23 -6 32 7 34 45 l0 22 11 -22 c14 -30 39
-29 71 3 26 26 35 58 28 107 -4 34 -28 35 -64 4z"/>
<path d="M4628 4093 c-20 -35 -24 -60 -15 -94 10 -38 37 -45 59 -17 28 36 32
67 15 104 -20 41 -37 43 -59 7z"/>
<path d="M1240 4054 c0 -8 5 -12 10 -9 6 4 8 11 5 16 -9 14 -15 11 -15 -7z"/>
<path d="M3692 4017 c-12 -14 7 -77 31 -101 9 -9 36 -19 61 -22 46 -7 46 -6
46 22 0 16 -7 40 -16 52 -14 21 -74 59 -74 47 0 -3 -9 -1 -19 4 -13 8 -22 7
-29 -2z"/>
<path d="M4667 3949 c-16 -16 -25 -34 -22 -40 12 -18 49 -27 77 -17 27 9 55
59 44 77 -13 20 -70 8 -99 -20z"/>
<path d="M3790 3872 c-32 -11 -70 -44 -70 -62 0 -22 57 -44 86 -34 32 12 57
43 48 62 -4 9 -6 21 -5 26 1 5 -5 6 -12 3 -8 -3 -18 -2 -23 3 -5 4 -16 5 -24
2z"/>
<path d="M4780 3807 c0 -6 -3 -7 -7 -4 -4 4 -19 -4 -34 -19 -14 -14 -33 -26
-40 -27 -36 -6 -77 -54 -74 -87 1 -8 3 -21 3 -27 3 -20 50 -15 72 7 11 11 21
30 22 43 0 12 2 27 3 32 2 6 3 18 4 28 0 9 6 17 12 17 5 0 8 -4 5 -9 -3 -5 4
-20 15 -35 16 -20 29 -26 58 -26 20 0 45 6 55 13 16 12 17 17 6 37 -7 13 -20
31 -29 41 -19 19 -71 31 -71 16z"/>
<path d="M278 3805 c-11 -12 15 -84 38 -106 32 -30 100 -35 114 -8 20 36 -13
96 -59 109 -40 11 -85 13 -93 5z"/>
<path d="M1105 3760 c-4 -6 -9 -35 -12 -65 -5 -52 -4 -56 27 -85 29 -27 35
-29 48 -17 8 8 16 35 19 59 5 40 2 49 -27 81 -33 39 -45 44 -55 27z"/>
<path d="M3130 3720 c0 -5 5 -10 10 -10 6 0 10 5 10 10 0 6 -4 10 -10 10 -5 0
-10 -4 -10 -10z"/>
<path d="M3683 3658 c-12 -6 -28 -27 -36 -46 -14 -34 -13 -37 8 -54 13 -10 34
-18 47 -18 25 0 66 37 87 78 11 20 9 23 -14 32 -45 17 -69 19 -92 8z"/>
<path d="M267 3628 c-13 -13 -29 -35 -35 -50 -10 -24 -9 -29 8 -38 53 -29 117
0 135 60 4 14 13 29 19 33 6 5 2 6 -11 2 -12 -3 -24 -1 -28 5 -11 18 -63 11
-88 -12z"/>
<path d="M1625 3639 c-11 -16 -12 -69 -2 -69 4 0 6 -4 3 -9 -7 -11 43 -63 54
-56 5 3 10 -1 13 -7 8 -22 26 39 21 68 -6 35 -19 51 -55 70 -19 9 -30 11 -34
3z"/>
<path d="M407 3609 c-10 -6 -15 -14 -13 -18 3 -4 7 -20 10 -36 7 -37 24 -53
62 -61 25 -5 32 -2 36 14 14 50 -55 123 -95 101z"/>
<path d="M4630 3596 c-6 -6 -18 -11 -28 -11 -25 0 -23 -45 5 -73 28 -30 76
-31 131 -3 45 23 48 28 29 52 -28 37 -114 58 -137 35z"/>
<path d="M1766 3569 c-34 -27 -48 -59 -32 -78 9 -12 8 -13 -4 -6 -13 8 -13 6
-1 -8 31 -38 96 11 87 66 -7 44 -19 50 -50 26z"/>
<path d="M3764 3480 c-29 -11 -44 -34 -42 -62 2 -19 8 -25 33 -26 20 -2 39 5
53 18 19 18 23 27 22 58 0 12 -44 20 -66 12z"/>
<path d="M4300 3468 c-34 -37 -23 -56 30 -48 18 2 50 39 50 57 0 22 -57 16
-80 -9z"/>
<path d="M4325 3400 c-18 -6 -17 -9 12 -39 26 -26 37 -30 60 -25 36 9 45 17
38 36 -11 28 -68 43 -110 28z"/>
<path d="M632 3392 c-12 -4 -6 -53 10 -84 8 -17 77 -42 87 -32 12 12 3 75 -13
92 -17 19 -61 32 -84 24z"/>
<path d="M270 3365 c-16 -41 -12 -64 15 -91 29 -29 45 -27 62 6 14 29 -3 69
-42 94 -25 16 -26 16 -35 -9z"/>
<path d="M1390 3339 c0 -50 49 -99 100 -99 46 0 4 108 -42 111 -7 0 -23 2 -35
5 -18 3 -23 -1 -23 -17z"/>
<path d="M1552 3347 c-26 -34 -30 -80 -10 -104 24 -30 67 -1 68 45 0 46 -38
85 -58 59z"/>
<path d="M560 3293 c-28 -11 -70 -44 -70 -57 0 -7 15 -19 33 -28 28 -13 45
-15 92 -9 6 0 25 14 42 30 l31 28 -36 18 c-43 20 -71 25 -92 18z"/>
<path d="M3818 3283 c6 -2 18 -2 25 0 6 3 1 5 -13 5 -14 0 -19 -2 -12 -5z"/>
<path d="M4533 3260 c-23 -9 -43 -39 -43 -63 0 -15 18 -26 58 -33 41 -8 108
79 70 90 -37 12 -65 13 -85 6z"/>
<path d="M3247 3222 c-15 -9 -27 -22 -27 -29 0 -7 0 -16 0 -20 0 -5 14 -8 31
-9 22 -1 35 6 46 22 28 44 -2 65 -50 36z"/>
<path d="M384 3036 c-9 -23 26 -78 57 -89 33 -13 36 -22 13 -35 -9 -5 -18 -23
-20 -40 -3 -29 -1 -32 24 -30 27 2 72 33 72 51 0 6 -8 19 -17 30 -17 20 -17
20 1 13 14 -5 16 -4 8 6 -5 7 -12 24 -14 37 -6 44 -110 92 -124 57z"/>
<path d="M4489 3037 l-37 -8 27 -27 c29 -30 70 -39 102 -22 l21 12 -22 23
c-27 29 -46 34 -91 22z"/>
<path d="M485 2720 c-39 -15 -60 -55 -49 -92 5 -18 35 -13 70 12 26 19 33 40
23 68 -9 24 -13 25 -44 12z"/>
<path d="M3383 2473 c-25 -9 14 -88 46 -94 26 -5 74 -4 82 2 15 9 -15 65 -44
81 -24 13 -64 18 -84 11z"/>
<path d="M1305 2439 c-13 -19 16 -67 46 -78 45 -16 60 -6 47 31 -7 20 -22 35
-44 44 -40 17 -41 17 -49 3z"/>
<path d="M1308 2103 c7 -3 16 -2 19 1 4 3 -2 6 -13 5 -11 0 -14 -3 -6 -6z"/>
<path d="M1348 2103 c7 -3 16 -2 19 1 4 3 -2 6 -13 5 -11 0 -14 -3 -6 -6z"/>
<path d="M3960 1120 c-9 -6 -10 -10 -3 -10 6 0 15 5 18 10 8 12 4 12 -15 0z"/>
<path d="M3772 1075 c-6 -14 -7 -25 -2 -25 9 0 25 39 18 46 -3 2 -10 -7 -16
-21z"/>
<path d="M1966 1081 c-3 -4 4 -7 14 -6 27 2 33 10 10 12 -11 1 -22 -2 -24 -6z"/>
<path d="M1870 1070 c8 -5 20 -10 25 -10 6 0 3 5 -5 10 -8 5 -19 10 -25 10 -5
0 -3 -5 5 -10z"/>
<path d="M3708 1073 c7 -3 16 -2 19 1 4 3 -2 6 -13 5 -11 0 -14 -3 -6 -6z"/>
<path d="M3660 1060 c-8 -5 -10 -10 -5 -10 6 0 17 5 25 10 8 5 11 10 5 10 -5
0 -17 -5 -25 -10z"/>
<path d="M3615 1050 c-16 -7 -17 -9 -3 -9 9 -1 20 4 23 9 7 11 7 11 -20 0z"/>
<path d="M3550 1038 c0 -11 12 -10 30 2 12 7 10 9 -8 7 -12 0 -22 -5 -22 -9z"/>
<path d="M1450 1006 c0 -2 7 -7 16 -10 8 -3 12 -2 9 4 -6 10 -25 14 -25 6z"/>
<path d="M1721 990 c-9 -5 -4 -7 13 -7 29 0 32 2 13 10 -8 3 -20 2 -26 -3z"/>
<path d="M1618 983 c7 -3 16 -2 19 1 4 3 -2 6 -13 5 -11 0 -14 -3 -6 -6z"/>
<path d="M3896 962 c-3 -5 1 -9 9 -9 8 0 12 4 9 9 -3 4 -7 8 -9 8 -2 0 -6 -4
-9 -8z"/>
<path d="M1290 884 c0 -6 7 -19 16 -30 14 -18 14 -18 3 6 -14 31 -19 36 -19
24z"/>
<path d="M3994 851 c-45 -41 -141 -94 -191 -105 -7 -1 -16 -5 -19 -9 -4 -4
-13 -2 -20 4 -8 7 -14 7 -19 -1 -3 -5 -15 -10 -26 -10 -11 0 -17 -5 -14 -10 3
-6 21 -8 38 -6 44 5 149 43 157 57 4 6 9 10 11 8 8 -5 74 44 92 67 22 29 18
31 -9 5z"/>
<path d="M1640 821 c-6 -12 -18 -18 -30 -16 -11 2 -22 -1 -26 -6 -4 -6 -10 -6
-19 1 -8 7 -15 7 -19 1 -7 -10 -25 -9 -43 2 -8 5 -13 3 -13 -7 0 -8 8 -13 18
-12 9 2 20 -2 24 -7 4 -8 15 -7 33 1 53 24 77 6 50 -38 -8 -13 -6 -13 8 -1 9
7 15 16 13 20 -8 12 9 30 32 34 12 2 24 6 28 9 3 4 12 4 20 1 8 -3 14 0 14 5
0 6 -12 9 -26 6 -15 -3 -32 -6 -38 -7 -6 -1 -10 6 -8 16 4 23 -5 22 -18 -2z"/>
<path d="M1334 815 c11 -8 17 -15 14 -15 -3 0 7 -14 23 -31 16 -17 26 -36 22
-42 -3 -5 -2 -7 3 -4 5 3 30 -12 54 -34 46 -40 60 -47 60 -29 0 6 -5 10 -12
10 -6 0 -46 36 -89 80 -43 44 -82 80 -86 80 -4 0 1 -7 11 -15z"/>
<path d="M3820 816 c0 -2 7 -7 16 -10 8 -3 12 -2 9 4 -6 10 -25 14 -25 6z"/>
<path d="M3643 798 c-2 -5 3 -9 11 -9 9 -1 22 -2 29 -3 6 0 12 -7 12 -15 0 -8
10 -15 22 -16 13 -1 19 3 16 11 -3 8 -10 12 -15 11 -6 -1 -12 3 -15 9 -2 7 5
10 22 7 14 -3 25 -1 25 3 0 11 -100 12 -107 2z"/>
<path d="M1430 796 c0 -2 11 -6 25 -8 13 -3 22 -1 19 3 -5 9 -44 13 -44 5z"/>
<path d="M1330 750 c-9 -6 -10 -10 -3 -10 6 0 15 5 18 10 8 12 4 12 -15 0z"/>
<path d="M1508 753 c7 -3 16 -2 19 1 4 3 -2 6 -13 5 -11 0 -14 -3 -6 -6z"/>
<path d="M3744 686 c11 -9 24 -16 30 -16 12 0 7 5 -24 19 -24 11 -24 11 -6 -3z"/>
<path d="M3986 662 c-3 -5 1 -9 9 -9 8 0 12 4 9 9 -3 4 -7 8 -9 8 -2 0 -6 -4
-9 -8z"/>
<path d="M3936 641 c-4 -5 3 -7 14 -4 23 6 26 13 6 13 -8 0 -17 -4 -20 -9z"/>
<path d="M1300 620 c0 -4 7 -7 15 -6 23 3 26 12 5 13 -11 1 -20 -2 -20 -7z"/>
<path d="M1244 603 c-10 -7 -13 -13 -7 -13 7 0 15 5 18 10 4 6 10 8 15 5 5 -3
11 -2 14 3 8 13 -19 10 -40 -5z"/>
<path d="M1200 590 c-9 -6 -10 -10 -3 -10 6 0 15 5 18 10 8 12 4 12 -15 0z"/>
<path d="M3795 480 c3 -5 8 -10 11 -10 2 0 4 5 4 10 0 6 -5 10 -11 10 -5 0 -7
-4 -4 -10z"/>
<path d="M3850 486 c0 -2 7 -7 16 -10 8 -3 12 -2 9 4 -6 10 -25 14 -25 6z"/>
<path d="M1400 457 c0 -5 6 -7 13 -4 6 2 30 -6 52 -17 52 -29 84 -31 82 -6 -1
10 -5 16 -9 14 -17 -11 -48 -12 -48 -3 0 6 -4 7 -10 4 -5 -3 -10 -1 -10 6 0 7
8 9 21 6 12 -3 18 -3 14 1 -10 10 -105 9 -105 -1z"/>
<path d="M3830 461 c0 -5 7 -11 14 -14 10 -4 13 -1 9 9 -6 15 -23 19 -23 5z"/>
<path d="M3876 438 c3 -5 10 -6 15 -3 13 9 11 12 -6 12 -8 0 -12 -4 -9 -9z"/>
<path d="M3918 423 c7 -3 16 -2 19 1 4 3 -2 6 -13 5 -11 0 -14 -3 -6 -6z"/>
<path d="M1785 411 c-2 -3 12 -6 31 -7 19 0 34 2 34 6 0 8 -60 9 -65 1z"/>
<path d="M1655 355 c-28 -25 -45 -45 -40 -44 10 0 104 89 95 89 -3 0 -28 -20
-55 -45z"/>
<path d="M1589 283 c-13 -16 -12 -17 4 -4 16 13 21 21 13 21 -2 0 -10 -8 -17
-17z"/>
<path d="M1941 284 c0 -11 3 -14 6 -6 3 7 2 16 -1 19 -3 4 -6 -2 -5 -13z"/>
<path d="M2043 277 c-10 -13 -24 -22 -32 -19 -8 3 -11 0 -7 -7 9 -14 36 -14
36 0 0 8 6 7 17 -2 15 -13 15 -12 5 8 -10 18 -9 24 5 32 10 6 13 11 6 11 -6 0
-20 -10 -30 -23z"/>
<path d="M3173 235 c0 -8 4 -12 9 -9 5 3 6 10 3 15 -9 13 -12 11 -12 -6z"/>
<path d="M3750 248 c0 -11 30 -78 35 -78 3 0 -2 17 -10 37 -15 36 -25 52 -25
41z"/>
<path d="M3706 190 c2 -23 6 -46 9 -51 4 -5 1 -9 -6 -9 -7 0 -10 -2 -7 -6 3
-3 2 -21 -2 -40 -4 -18 -4 -34 0 -34 18 0 29 155 12 172 -7 7 -9 -3 -6 -32z"/>
<path d="M3185 211 c-3 -5 -2 -12 3 -15 5 -3 9 1 9 9 0 17 -3 19 -12 6z"/>
<path d="M3350 210 c0 -16 26 -30 37 -19 8 8 13 8 17 0 4 -6 12 -11 19 -11 6
0 1 8 -13 17 -25 18 -60 25 -60 13z"/>
<path d="M3910 206 c0 -2 7 -7 16 -10 8 -3 12 -2 9 4 -6 10 -25 14 -25 6z"/>
<path d="M2525 179 c-11 -17 1 -21 15 -4 8 9 8 15 2 15 -6 0 -14 -5 -17 -11z"/>
<path d="M3390 176 c0 -3 9 -15 19 -25 19 -19 19 -19 24 0 3 11 1 16 -4 13 -6
-3 -16 0 -24 6 -8 7 -15 10 -15 6z"/>
<path d="M3630 176 c0 -3 9 -10 20 -16 11 -6 20 -8 20 -6 0 3 -9 10 -20 16
-11 6 -20 8 -20 6z"/>
<path d="M2550 156 c0 -8 -3 -16 -7 -18 -9 -3 -43 -62 -43 -74 0 -4 11 5 24
19 26 28 50 87 35 87 -5 0 -9 -6 -9 -14z"/>
<path d="M1745 152 c3 -4 11 -8 16 -8 5 -1 10 -2 12 -3 8 -8 47 -9 47 -3 0 5
-6 9 -12 9 -7 0 -26 3 -42 6 -16 4 -25 3 -21 -1z"/>
<path d="M2190 148 c0 -5 -5 -6 -12 -2 -7 4 -8 3 -4 -4 5 -9 13 -9 27 -2 23
13 24 17 4 17 -8 0 -15 -4 -15 -9z"/>
<path d="M2090 140 c0 -5 5 -10 11 -10 5 0 7 5 4 10 -3 6 -8 10 -11 10 -2 0
-4 -4 -4 -10z"/>
<path d="M2041 108 c-8 -18 -14 -35 -15 -38 -1 -3 -5 -11 -10 -19 -6 -10 -5
-12 3 -7 6 4 18 24 27 44 8 20 20 40 27 44 9 6 8 8 -3 8 -9 0 -22 -15 -29 -32z"/>
<path d="M2902 115 c-6 -14 -10 -25 -8 -25 2 0 11 11 20 25 9 14 13 25 8 25
-5 0 -14 -11 -20 -25z"/>
<path d="M3440 120 c0 -5 5 -10 11 -10 5 0 7 5 4 10 -3 6 -8 10 -11 10 -2 0
-4 -4 -4 -10z"/>
<path d="M3800 126 c0 -2 8 -10 18 -17 15 -13 16 -12 3 4 -13 16 -21 21 -21
13z"/>
<path d="M3891 114 c0 -11 3 -14 6 -6 3 7 2 16 -1 19 -3 4 -6 -2 -5 -13z"/>
<path d="M2186 105 c-11 -8 -16 -15 -10 -15 5 0 18 7 28 15 11 8 16 15 10 15
-5 0 -18 -7 -28 -15z"/>
<path d="M3242 84 c10 -10 20 -16 22 -13 3 3 -5 11 -17 18 -21 13 -21 12 -5
-5z"/>
<path d="M3460 96 c0 -2 8 -10 18 -17 15 -13 16 -12 3 4 -13 16 -21 21 -21 13z"/>
<path d="M3035 80 c3 -5 8 -10 11 -10 2 0 4 5 4 10 0 6 -5 10 -11 10 -5 0 -7
-4 -4 -10z"/>
<path d="M2540 57 c0 -5 -4 -6 -9 -2 -5 3 -16 -2 -24 -10 -11 -11 -17 -11 -19
-3 -3 7 -7 5 -11 -5 -5 -14 -1 -17 23 -15 17 1 30 6 30 10 0 5 10 4 21 -3 17
-9 20 -8 14 2 -5 7 -1 17 9 24 15 12 14 13 -8 11 -15 0 -26 -5 -26 -9z"/>
<path d="M3264 54 c-18 -15 -18 -15 2 -5 12 6 25 7 29 3 5 -4 5 -1 1 6 -9 15
-8 15 -32 -4z"/>
<path d="M2276 34 c-5 -14 -4 -15 9 -4 17 14 19 20 6 20 -5 0 -12 -7 -15 -16z"/>
<path d="M2776 37 c3 -10 9 -15 12 -12 3 3 0 11 -7 18 -10 9 -11 8 -5 -6z"/>
</g>
</svg>
